{"glyphs":{"0":{"ha":799,"x_min":63,"x_max":736,"o":"m 399 -14 q 148 109 234 -14 q 63 469 63 233 q 148 828 63 705 q 399 951 234 951 q 650 828 565 951 q 736 469 736 705 q 650 109 736 233 q 399 -14 565 -14 m 399 81 q 574 179 516 81 q 632 469 632 277 q 574 759 632 662 q 399 856 516 856 q 225 760 284 856 q 167 469 167 663 q 225 178 167 274 q 399 81 284 81 z "},"1":{"ha":799,"x_min":115,"x_max":711,"o":"m 135 0 l 135 93 l 387 93 l 387 816 l 119 632 l 115 632 l 115 742 l 403 938 l 495 938 l 495 93 l 711 93 l 711 0 l 135 0 z "},"2":{"ha":799,"x_min":72,"x_max":727,"o":"m 72 0 l 72 83 l 461 465 q 568 590 539 542 q 597 689 597 638 q 545 812 597 767 q 400 856 493 856 q 178 660 201 856 l 72 660 q 168 874 81 797 q 402 951 256 951 q 563 919 494 951 q 669 829 631 887 q 707 693 707 771 q 671 566 707 630 q 557 426 635 502 l 218 100 l 220 95 l 727 95 l 727 0 l 72 0 z "},"3":{"ha":799,"x_min":58,"x_max":720,"o":"m 385 -14 q 154 53 238 -14 q 58 243 69 120 l 163 243 q 227 123 170 166 q 383 81 285 81 q 552 130 490 81 q 613 263 613 179 q 554 394 613 345 q 399 443 495 443 l 251 443 l 251 531 l 409 531 q 542 576 491 531 q 593 693 593 622 q 538 812 593 767 q 391 856 484 856 q 248 815 303 856 q 177 694 193 773 l 74 694 q 124 831 82 773 q 237 920 167 889 q 398 951 307 951 q 556 921 488 951 q 661 837 624 891 q 699 711 699 782 q 657 579 699 634 q 536 494 616 523 l 536 490 q 673 407 626 468 q 720 256 720 347 q 679 113 720 174 q 563 19 638 52 q 385 -14 488 -14 z "},"4":{"ha":799,"x_min":23,"x_max":775,"o":"m 521 0 l 521 231 l 23 231 l 23 313 l 522 938 l 627 938 l 627 324 l 775 324 l 775 231 l 627 231 l 627 0 l 521 0 m 139 324 l 525 324 l 525 803 l 521 803 l 139 324 z "},"5":{"ha":799,"x_min":58,"x_max":720,"o":"m 381 -14 q 153 55 237 -14 q 58 243 68 124 l 163 243 q 229 124 169 168 q 384 81 288 81 q 555 139 497 81 q 613 295 613 197 q 553 454 613 396 q 389 513 492 513 q 270 491 325 513 q 183 431 215 469 l 89 431 l 153 938 l 664 938 l 664 843 l 244 843 l 207 547 l 212 547 q 402 605 282 605 q 633 524 546 605 q 720 302 720 442 q 631 73 720 160 q 381 -14 543 -14 z "},"6":{"ha":799,"x_min":66,"x_max":738,"o":"m 420 -14 q 159 103 251 -14 q 66 434 66 220 q 159 819 66 686 q 431 951 252 951 q 627 894 549 951 q 731 729 705 836 l 627 729 q 556 824 606 792 q 431 856 506 856 q 241 762 304 856 q 171 472 177 668 l 176 472 q 275 571 212 537 q 424 605 339 605 q 589 567 517 605 q 699 461 660 529 q 738 302 738 392 q 698 136 738 207 q 587 25 659 65 q 420 -14 516 -14 m 416 81 q 572 140 513 81 q 632 296 632 199 q 567 453 632 392 q 397 513 501 513 q 242 462 302 513 q 182 331 182 411 q 247 150 182 219 q 416 81 311 81 z "},"7":{"ha":799,"x_min":58,"x_max":741,"o":"m 178 0 l 627 840 l 58 840 l 58 938 l 741 938 l 741 848 l 301 0 l 178 0 z "},"8":{"ha":799,"x_min":65,"x_max":734,"o":"m 399 -14 q 222 20 297 -14 q 106 115 147 53 q 65 258 65 176 q 113 396 65 336 q 245 487 161 456 l 245 492 q 135 578 178 520 q 93 701 93 637 q 130 834 93 778 q 237 921 168 890 q 399 951 306 951 q 563 921 494 951 q 669 834 632 890 q 706 701 706 778 q 664 583 706 638 q 552 499 623 528 l 552 494 q 685 400 635 464 q 734 258 734 337 q 693 115 734 176 q 577 20 652 53 q 399 -14 502 -14 m 399 79 q 565 130 502 79 q 627 263 627 181 q 565 396 627 345 q 399 447 502 447 q 234 396 296 447 q 171 263 171 345 q 234 130 171 181 q 399 79 296 79 m 399 537 q 546 580 493 537 q 600 698 600 624 q 546 815 600 772 q 399 859 493 859 q 253 815 307 859 q 200 698 200 772 q 253 580 200 624 q 399 537 307 537 z "},"9":{"ha":799,"x_min":59,"x_max":720,"o":"m 377 -14 q 172 48 251 -14 q 66 229 93 110 l 174 229 q 245 117 196 154 q 376 81 295 81 q 562 178 505 81 q 617 491 619 274 l 612 491 q 512 380 574 417 q 361 344 449 344 q 203 380 271 344 q 97 482 134 417 q 59 634 59 547 q 98 799 59 728 q 208 910 138 870 q 370 950 279 950 q 630 827 539 950 q 720 472 720 704 q 635 106 720 226 q 377 -14 551 -14 m 385 436 q 543 490 484 436 q 598 628 602 543 q 533 793 595 730 q 374 855 471 855 q 221 795 280 855 q 162 638 162 734 q 223 491 162 546 q 385 436 284 436 z "},"A":{"ha":949,"x_min":7,"x_max":942,"o":"m 7 0 l 411 938 l 539 938 l 942 0 l 831 0 l 704 296 l 243 296 l 116 0 l 7 0 m 279 394 l 668 394 l 477 840 l 471 840 l 279 394 z "},"Á":{"ha":949,"x_min":7,"x_max":942,"o":"m 7 0 l 411 938 l 539 938 l 942 0 l 831 0 l 704 296 l 243 296 l 116 0 l 7 0 m 279 394 l 668 394 l 477 840 l 471 840 l 279 394 m 403 1030 l 403 1035 l 528 1237 l 660 1237 l 660 1233 l 478 1030 l 403 1030 z "},"Ă":{"ha":949,"x_min":7,"x_max":942,"o":"m 7 0 l 411 938 l 539 938 l 942 0 l 831 0 l 704 296 l 243 296 l 116 0 l 7 0 m 279 394 l 668 394 l 477 840 l 471 840 l 279 394 m 475 1030 q 375 1050 417 1030 q 308 1108 333 1069 q 278 1200 284 1146 l 347 1200 q 384 1139 355 1162 q 475 1116 413 1116 q 565 1139 536 1116 q 602 1200 594 1162 l 671 1200 q 641 1108 666 1146 q 575 1050 617 1069 q 475 1030 532 1030 z "},"Â":{"ha":949,"x_min":7,"x_max":942,"o":"m 7 0 l 411 938 l 539 938 l 942 0 l 831 0 l 704 296 l 243 296 l 116 0 l 7 0 m 279 394 l 668 394 l 477 840 l 471 840 l 279 394 m 263 1030 l 263 1035 l 421 1237 l 528 1237 l 689 1035 l 689 1030 l 615 1030 l 473 1152 l 334 1030 l 263 1030 z "},"Ä":{"ha":949,"x_min":7,"x_max":942,"o":"m 7 0 l 411 938 l 539 938 l 942 0 l 831 0 l 704 296 l 243 296 l 116 0 l 7 0 m 279 394 l 668 394 l 477 840 l 471 840 l 279 394 m 611 1043 q 563 1063 583 1043 q 543 1111 543 1083 q 563 1159 543 1139 q 611 1179 583 1179 q 659 1159 639 1179 q 679 1111 679 1139 q 659 1063 679 1083 q 611 1043 639 1043 m 340 1043 q 292 1063 313 1043 q 272 1111 272 1083 q 292 1159 272 1139 q 340 1179 313 1179 q 388 1159 368 1179 q 409 1111 409 1139 q 388 1063 409 1083 q 340 1043 368 1043 z "},"À":{"ha":949,"x_min":7,"x_max":942,"o":"m 7 0 l 411 938 l 539 938 l 942 0 l 831 0 l 704 296 l 243 296 l 116 0 l 7 0 m 279 394 l 668 394 l 477 840 l 471 840 l 279 394 m 472 1030 l 292 1233 l 292 1237 l 421 1237 l 549 1035 l 549 1030 l 472 1030 z "},"Ā":{"ha":949,"x_min":7,"x_max":942,"o":"m 7 0 l 411 938 l 539 938 l 942 0 l 831 0 l 704 296 l 243 296 l 116 0 l 7 0 m 279 394 l 668 394 l 477 840 l 471 840 l 279 394 m 263 1073 l 263 1149 l 689 1149 l 689 1073 l 263 1073 z "},"Ą":{"ha":949,"x_min":7,"x_max":973,"o":"m 7 0 l 411 938 l 539 938 l 942 0 l 831 0 l 704 296 l 243 296 l 116 0 l 7 0 m 279 394 l 668 394 l 477 840 l 471 840 l 279 394 m 862 -278 q 784 -251 809 -278 q 758 -174 758 -223 q 798 -62 758 -115 q 884 19 838 -10 l 942 0 q 870 -80 894 -41 q 846 -174 846 -119 l 846 -201 l 973 -201 l 973 -278 l 862 -278 z "},"Å":{"ha":949,"x_min":7,"x_max":942,"o":"m 7 0 l 411 938 l 539 938 l 942 0 l 831 0 l 704 296 l 243 296 l 116 0 l 7 0 m 279 394 l 668 394 l 477 840 l 471 840 l 279 394 m 476 993 q 396 1014 433 993 q 339 1070 360 1035 q 317 1149 317 1105 q 339 1230 317 1194 q 396 1285 360 1265 q 476 1306 433 1306 q 556 1285 520 1306 q 613 1230 591 1265 q 634 1149 634 1194 q 613 1070 634 1105 q 556 1014 591 1035 q 476 993 520 993 m 476 1064 q 536 1088 510 1064 q 561 1149 561 1112 q 536 1211 561 1186 q 476 1235 510 1235 q 416 1211 441 1235 q 390 1149 390 1186 q 416 1088 390 1112 q 476 1064 441 1064 z "},"Ã":{"ha":949,"x_min":7,"x_max":942,"o":"m 7 0 l 411 938 l 539 938 l 942 0 l 831 0 l 704 296 l 243 296 l 116 0 l 7 0 m 279 394 l 668 394 l 477 840 l 471 840 l 279 394 m 240 1028 q 282 1150 247 1106 q 378 1194 318 1194 q 452 1174 418 1194 q 517 1132 486 1153 q 576 1111 549 1111 q 649 1194 633 1111 l 712 1194 q 668 1073 704 1118 q 572 1028 632 1028 q 501 1049 535 1028 q 435 1090 466 1069 q 375 1111 404 1111 q 327 1091 344 1111 q 302 1028 310 1071 l 240 1028 z "},"Æ":{"ha":1377,"x_min":7,"x_max":1405,"o":"m 7 0 l 411 938 l 1056 938 l 1091 843 l 580 843 l 713 532 l 1183 532 l 1218 440 l 753 440 l 902 95 l 1369 95 l 1405 0 l 831 0 l 704 296 l 243 296 l 116 0 l 7 0 m 279 394 l 668 394 l 477 840 l 471 840 l 279 394 z "},"B":{"ha":938,"x_min":120,"x_max":880,"o":"m 120 0 l 120 938 l 566 938 q 707 909 647 938 q 800 826 766 880 q 833 698 833 772 q 782 565 833 617 q 667 501 731 514 l 667 497 q 762 466 713 492 q 845 389 811 440 q 880 263 880 339 q 842 124 880 183 q 738 32 804 65 q 587 0 672 0 l 120 0 m 231 95 l 561 95 q 713 139 657 95 q 769 269 769 184 q 714 397 769 354 q 563 440 659 440 l 231 440 l 231 95 m 231 532 l 553 532 q 677 573 632 532 q 722 688 722 613 q 677 803 722 763 q 553 843 632 843 l 231 843 l 231 532 z "},"C":{"ha":961,"x_min":63,"x_max":928,"o":"m 530 -14 q 284 46 389 -14 q 120 214 178 105 q 63 469 63 323 q 120 724 63 616 q 284 892 178 832 q 530 951 389 951 q 719 917 637 951 q 855 818 801 883 q 928 660 909 752 l 817 660 q 721 804 795 753 q 530 854 647 854 q 267 751 362 854 q 171 469 171 648 q 267 186 171 289 q 530 83 362 83 q 721 134 647 83 q 817 278 795 184 l 928 278 q 855 120 909 185 q 719 20 801 54 q 530 -14 637 -14 z "},"Ć":{"ha":961,"x_min":63,"x_max":928,"o":"m 530 -14 q 284 46 389 -14 q 120 214 178 105 q 63 469 63 323 q 120 724 63 616 q 284 892 178 832 q 530 951 389 951 q 719 917 637 951 q 855 818 801 883 q 928 660 909 752 l 817 660 q 721 804 795 753 q 530 854 647 854 q 267 751 362 854 q 171 469 171 648 q 267 186 171 289 q 530 83 362 83 q 721 134 647 83 q 817 278 795 184 l 928 278 q 855 120 909 185 q 719 20 801 54 q 530 -14 637 -14 m 457 1030 l 457 1035 l 582 1237 l 714 1237 l 714 1233 l 532 1030 l 457 1030 z "},"Č":{"ha":961,"x_min":63,"x_max":928,"o":"m 530 -14 q 284 46 389 -14 q 120 214 178 105 q 63 469 63 323 q 120 724 63 616 q 284 892 178 832 q 530 951 389 951 q 719 917 637 951 q 855 818 801 883 q 928 660 909 752 l 817 660 q 721 804 795 753 q 530 854 647 854 q 267 751 362 854 q 171 469 171 648 q 267 186 171 289 q 530 83 362 83 q 721 134 647 83 q 817 278 795 184 l 928 278 q 855 120 909 185 q 719 20 801 54 q 530 -14 637 -14 m 476 1030 l 317 1233 l 317 1237 l 389 1237 l 528 1112 l 669 1237 l 743 1237 l 743 1233 l 582 1030 l 476 1030 z "},"Ç":{"ha":961,"x_min":63,"x_max":928,"o":"m 530 -14 q 284 46 389 -14 q 120 214 178 105 q 63 469 63 323 q 120 724 63 616 q 284 892 178 832 q 530 951 389 951 q 719 917 637 951 q 855 818 801 883 q 928 660 909 752 l 817 660 q 721 804 795 753 q 530 854 647 854 q 267 751 362 854 q 171 469 171 648 q 267 186 171 289 q 530 83 362 83 q 721 134 647 83 q 817 278 795 184 l 928 278 q 855 120 909 185 q 719 20 801 54 q 530 -14 637 -14 m 405 -310 l 405 -234 l 559 -234 l 559 -200 q 525 -135 559 -153 q 439 -111 491 -117 l 514 35 l 583 35 l 531 -71 q 612 -109 579 -80 q 645 -206 645 -138 q 618 -280 645 -249 q 541 -310 591 -310 l 405 -310 z "},"Ċ":{"ha":961,"x_min":63,"x_max":928,"o":"m 530 -14 q 284 46 389 -14 q 120 214 178 105 q 63 469 63 323 q 120 724 63 616 q 284 892 178 832 q 530 951 389 951 q 719 917 637 951 q 855 818 801 883 q 928 660 909 752 l 817 660 q 721 804 795 753 q 530 854 647 854 q 267 751 362 854 q 171 469 171 648 q 267 186 171 289 q 530 83 362 83 q 721 134 647 83 q 817 278 795 184 l 928 278 q 855 120 909 185 q 719 20 801 54 q 530 -14 637 -14 m 530 1042 q 481 1062 501 1042 q 461 1111 461 1082 q 481 1160 461 1140 q 530 1181 501 1181 q 579 1160 559 1181 q 600 1111 600 1140 q 579 1062 600 1082 q 530 1042 559 1042 z "},"D":{"ha":1007,"x_min":120,"x_max":942,"o":"m 120 0 l 120 938 l 449 938 q 712 881 602 938 q 883 720 823 825 q 942 469 942 615 q 882 219 942 324 q 711 57 822 113 q 449 0 601 0 l 120 0 m 231 95 l 449 95 q 727 193 627 95 q 828 469 828 291 q 728 745 828 648 q 449 843 628 843 l 231 843 l 231 95 z "},"Ď":{"ha":1007,"x_min":120,"x_max":942,"o":"m 120 0 l 120 938 l 449 938 q 712 881 602 938 q 883 720 823 825 q 942 469 942 615 q 882 219 942 324 q 711 57 822 113 q 449 0 601 0 l 120 0 m 231 95 l 449 95 q 727 193 627 95 q 828 469 828 291 q 728 745 828 648 q 449 843 628 843 l 231 843 l 231 95 m 421 1030 l 263 1233 l 263 1237 l 334 1237 l 473 1112 l 615 1237 l 689 1237 l 689 1233 l 528 1030 l 421 1030 z "},"Đ":{"ha":1007,"x_min":35,"x_max":977,"o":"m 155 0 l 155 443 l 35 443 l 35 529 l 155 529 l 155 938 l 484 938 q 747 881 637 938 q 917 720 858 825 q 977 469 977 615 q 917 219 977 324 q 746 57 856 113 q 484 0 635 0 l 155 0 m 266 95 l 484 95 q 762 193 662 95 q 862 469 862 291 q 763 745 862 648 q 484 843 663 843 l 266 843 l 266 529 l 583 529 l 583 443 l 266 443 l 266 95 z "},"Ð":{"ha":1007,"x_min":35,"x_max":977,"o":"m 155 0 l 155 443 l 35 443 l 35 529 l 155 529 l 155 938 l 484 938 q 747 881 637 938 q 917 720 858 825 q 977 469 977 615 q 917 219 977 324 q 746 57 856 113 q 484 0 635 0 l 155 0 m 266 95 l 484 95 q 762 193 662 95 q 862 469 862 291 q 763 745 862 648 q 484 843 663 843 l 266 843 l 266 529 l 583 529 l 583 443 l 266 443 l 266 95 z "},"E":{"ha":822,"x_min":120,"x_max":764,"o":"m 764 0 l 120 0 l 120 938 l 764 938 l 764 843 l 231 843 l 231 532 l 740 532 l 740 440 l 231 440 l 231 95 l 764 95 l 764 0 z "},"É":{"ha":822,"x_min":120,"x_max":764,"o":"m 764 0 l 120 0 l 120 938 l 764 938 l 764 843 l 231 843 l 231 532 l 740 532 l 740 440 l 231 440 l 231 95 l 764 95 l 764 0 m 367 1030 l 367 1035 l 492 1237 l 624 1237 l 624 1233 l 442 1030 l 367 1030 z "},"Ě":{"ha":822,"x_min":120,"x_max":764,"o":"m 764 0 l 120 0 l 120 938 l 764 938 l 764 843 l 231 843 l 231 532 l 740 532 l 740 440 l 231 440 l 231 95 l 764 95 l 764 0 m 385 1030 l 227 1233 l 227 1237 l 299 1237 l 438 1112 l 579 1237 l 653 1237 l 653 1233 l 492 1030 l 385 1030 z "},"Ê":{"ha":822,"x_min":120,"x_max":764,"o":"m 764 0 l 120 0 l 120 938 l 764 938 l 764 843 l 231 843 l 231 532 l 740 532 l 740 440 l 231 440 l 231 95 l 764 95 l 764 0 m 227 1030 l 227 1035 l 385 1237 l 492 1237 l 653 1035 l 653 1030 l 579 1030 l 438 1152 l 299 1030 l 227 1030 z "},"Ë":{"ha":822,"x_min":120,"x_max":764,"o":"m 764 0 l 120 0 l 120 938 l 764 938 l 764 843 l 231 843 l 231 532 l 740 532 l 740 440 l 231 440 l 231 95 l 764 95 l 764 0 m 575 1043 q 527 1063 547 1043 q 507 1111 507 1083 q 527 1159 507 1139 q 575 1179 547 1179 q 623 1159 603 1179 q 644 1111 644 1139 q 623 1063 644 1083 q 575 1043 603 1043 m 304 1043 q 256 1063 277 1043 q 236 1111 236 1083 q 256 1159 236 1139 q 304 1179 277 1179 q 352 1159 332 1179 q 373 1111 373 1139 q 352 1063 373 1083 q 304 1043 332 1043 z "},"Ė":{"ha":822,"x_min":120,"x_max":764,"o":"m 764 0 l 120 0 l 120 938 l 764 938 l 764 843 l 231 843 l 231 532 l 740 532 l 740 440 l 231 440 l 231 95 l 764 95 l 764 0 m 440 1042 q 391 1062 411 1042 q 370 1111 370 1082 q 391 1160 370 1140 q 440 1181 411 1181 q 489 1160 469 1181 q 509 1111 509 1140 q 489 1062 509 1082 q 440 1042 469 1042 z "},"È":{"ha":822,"x_min":120,"x_max":764,"o":"m 764 0 l 120 0 l 120 938 l 764 938 l 764 843 l 231 843 l 231 532 l 740 532 l 740 440 l 231 440 l 231 95 l 764 95 l 764 0 m 436 1030 l 256 1233 l 256 1237 l 385 1237 l 513 1035 l 513 1030 l 436 1030 z "},"Ē":{"ha":822,"x_min":120,"x_max":764,"o":"m 764 0 l 120 0 l 120 938 l 764 938 l 764 843 l 231 843 l 231 532 l 740 532 l 740 440 l 231 440 l 231 95 l 764 95 l 764 0 m 227 1073 l 227 1149 l 653 1149 l 653 1073 l 227 1073 z "},"Ę":{"ha":822,"x_min":120,"x_max":791,"o":"m 764 0 l 120 0 l 120 938 l 764 938 l 764 843 l 231 843 l 231 532 l 740 532 l 740 440 l 231 440 l 231 95 l 764 95 l 764 0 m 679 -278 q 601 -251 626 -278 q 575 -174 575 -223 q 615 -62 575 -115 q 701 19 655 -10 l 759 0 q 687 -80 711 -41 q 663 -174 663 -119 l 663 -201 l 791 -201 l 791 -278 l 679 -278 z "},"F":{"ha":775,"x_min":120,"x_max":752,"o":"m 231 0 l 120 0 l 120 938 l 752 938 l 752 843 l 231 843 l 231 520 l 725 520 l 725 425 l 231 425 l 231 0 z "},"G":{"ha":1007,"x_min":65,"x_max":933,"o":"m 517 -14 q 281 46 383 -14 q 122 215 178 106 q 65 469 65 324 q 124 722 65 613 q 291 891 184 831 q 538 951 397 951 q 728 917 646 951 q 863 818 810 883 q 933 660 916 753 l 817 660 q 727 804 799 755 q 538 854 655 854 q 348 807 429 854 q 223 674 267 760 q 178 469 178 587 q 223 264 178 352 q 347 127 267 176 q 528 78 426 78 q 678 108 611 78 q 785 189 745 138 q 824 306 824 241 l 824 373 l 514 373 l 514 465 l 822 465 q 903 438 874 465 q 933 361 933 411 l 933 0 l 825 0 l 825 146 l 819 146 q 707 30 791 74 q 517 -14 623 -14 z "},"Ğ":{"ha":1007,"x_min":65,"x_max":933,"o":"m 517 -14 q 281 46 383 -14 q 122 215 178 106 q 65 469 65 324 q 124 722 65 613 q 291 891 184 831 q 538 951 397 951 q 728 917 646 951 q 863 818 810 883 q 933 660 916 753 l 817 660 q 727 804 799 755 q 538 854 655 854 q 348 807 429 854 q 223 674 267 760 q 178 469 178 587 q 223 264 178 352 q 347 127 267 176 q 528 78 426 78 q 678 108 611 78 q 785 189 745 138 q 824 306 824 241 l 824 373 l 514 373 l 514 465 l 822 465 q 903 438 874 465 q 933 361 933 411 l 933 0 l 825 0 l 825 146 l 819 146 q 707 30 791 74 q 517 -14 623 -14 m 502 1030 q 403 1050 444 1030 q 336 1108 361 1069 q 306 1200 311 1146 l 375 1200 q 412 1139 383 1162 q 502 1116 441 1116 q 593 1139 564 1116 q 630 1200 622 1162 l 699 1200 q 669 1108 693 1146 q 602 1050 645 1069 q 502 1030 560 1030 z "},"Ģ":{"ha":1007,"x_min":65,"x_max":933,"o":"m 517 -14 q 281 46 383 -14 q 122 215 178 106 q 65 469 65 324 q 124 722 65 613 q 291 891 184 831 q 538 951 397 951 q 728 917 646 951 q 863 818 810 883 q 933 660 916 753 l 817 660 q 727 804 799 755 q 538 854 655 854 q 348 807 429 854 q 223 674 267 760 q 178 469 178 587 q 223 264 178 352 q 347 127 267 176 q 528 78 426 78 q 678 108 611 78 q 785 189 745 138 q 824 306 824 241 l 824 373 l 514 373 l 514 465 l 822 465 q 903 438 874 465 q 933 361 933 411 l 933 0 l 825 0 l 825 146 l 819 146 q 707 30 791 74 q 517 -14 623 -14 m 427 -382 l 427 -312 l 454 -312 q 495 -299 480 -312 q 509 -257 509 -285 l 509 -231 l 465 -231 l 465 -118 l 579 -118 l 579 -264 q 548 -351 579 -321 q 461 -382 517 -382 l 427 -382 z "},"Ġ":{"ha":1007,"x_min":65,"x_max":933,"o":"m 517 -14 q 281 46 383 -14 q 122 215 178 106 q 65 469 65 324 q 124 722 65 613 q 291 891 184 831 q 538 951 397 951 q 728 917 646 951 q 863 818 810 883 q 933 660 916 753 l 817 660 q 727 804 799 755 q 538 854 655 854 q 348 807 429 854 q 223 674 267 760 q 178 469 178 587 q 223 264 178 352 q 347 127 267 176 q 528 78 426 78 q 678 108 611 78 q 785 189 745 138 q 824 306 824 241 l 824 373 l 514 373 l 514 465 l 822 465 q 903 438 874 465 q 933 361 933 411 l 933 0 l 825 0 l 825 146 l 819 146 q 707 30 791 74 q 517 -14 623 -14 m 503 1042 q 454 1062 475 1042 q 434 1111 434 1082 q 454 1160 434 1140 q 503 1181 475 1181 q 553 1160 532 1181 q 573 1111 573 1140 q 553 1062 573 1082 q 503 1042 532 1042 z "},"H":{"ha":1030,"x_min":120,"x_max":910,"o":"m 120 0 l 120 938 l 231 938 l 231 534 l 799 534 l 799 938 l 910 938 l 910 0 l 799 0 l 799 439 l 231 439 l 231 0 l 120 0 z "},"Ħ":{"ha":1100,"x_min":35,"x_max":1065,"o":"m 155 0 l 155 726 l 35 726 l 35 802 l 155 802 l 155 938 l 266 938 l 266 802 l 833 802 l 833 938 l 944 938 l 944 802 l 1065 802 l 1065 726 l 944 726 l 944 0 l 833 0 l 833 404 l 266 404 l 266 0 l 155 0 m 266 499 l 833 499 l 833 726 l 266 726 l 266 499 z "},"I":{"ha":359,"x_min":124,"x_max":235,"o":"m 124 0 l 124 938 l 235 938 l 235 0 l 124 0 z "},"Ĳ":{"ha":856,"x_min":124,"x_max":733,"o":"m 124 0 l 124 938 l 235 938 l 235 0 l 124 0 m 382 0 l 382 95 l 622 95 l 622 938 l 733 938 l 733 104 q 704 26 733 52 q 624 0 675 0 l 382 0 z "},"Í":{"ha":359,"x_min":106,"x_max":363,"o":"m 124 0 l 124 938 l 235 938 l 235 0 l 124 0 m 106 1030 l 106 1035 l 231 1237 l 363 1237 l 363 1233 l 182 1030 l 106 1030 z "},"Î":{"ha":359,"x_min":-34,"x_max":392,"o":"m 124 0 l 124 938 l 235 938 l 235 0 l 124 0 m -34 1030 l -34 1035 l 125 1237 l 231 1237 l 392 1035 l 392 1030 l 318 1030 l 177 1152 l 38 1030 l -34 1030 z "},"Ï":{"ha":359,"x_min":-24,"x_max":383,"o":"m 124 0 l 124 938 l 235 938 l 235 0 l 124 0 m 315 1043 q 267 1063 287 1043 q 247 1111 247 1083 q 267 1159 247 1139 q 315 1179 287 1179 q 363 1159 343 1179 q 383 1111 383 1139 q 363 1063 383 1083 q 315 1043 343 1043 m 44 1043 q -4 1063 16 1043 q -24 1111 -24 1083 q -4 1159 -24 1139 q 44 1179 16 1179 q 92 1159 72 1179 q 112 1111 112 1139 q 92 1063 112 1083 q 44 1043 72 1043 z "},"İ":{"ha":359,"x_min":110,"x_max":249,"o":"m 124 0 l 124 938 l 235 938 l 235 0 l 124 0 m 179 1042 q 130 1062 150 1042 q 110 1111 110 1082 q 130 1160 110 1140 q 179 1181 150 1181 q 229 1160 208 1181 q 249 1111 249 1140 q 229 1062 249 1082 q 179 1042 208 1042 z "},"Ì":{"ha":359,"x_min":-5,"x_max":252,"o":"m 124 0 l 124 938 l 235 938 l 235 0 l 124 0 m 176 1030 l -5 1233 l -5 1237 l 125 1237 l 252 1035 l 252 1030 l 176 1030 z "},"Ī":{"ha":359,"x_min":-34,"x_max":392,"o":"m 124 0 l 124 938 l 235 938 l 235 0 l 124 0 m -34 1073 l -34 1149 l 392 1149 l 392 1073 l -34 1073 z "},"Į":{"ha":359,"x_min":51,"x_max":266,"o":"m 124 0 l 124 938 l 235 938 l 235 0 l 124 0 m 155 -278 q 76 -251 102 -278 q 51 -174 51 -223 q 91 -62 51 -115 q 177 19 131 -10 l 235 0 q 163 -80 186 -41 q 139 -174 139 -119 l 139 -201 l 266 -201 l 266 -278 l 155 -278 z "},"J":{"ha":498,"x_min":23,"x_max":374,"o":"m 23 0 l 23 95 l 263 95 l 263 938 l 374 938 l 374 104 q 345 26 374 52 q 265 0 316 0 l 23 0 z "},"K":{"ha":903,"x_min":120,"x_max":887,"o":"m 120 0 l 120 938 l 231 938 l 231 470 l 236 470 l 731 938 l 872 938 l 436 527 l 887 0 l 747 0 l 352 462 l 231 367 l 231 0 l 120 0 z "},"Ķ":{"ha":903,"x_min":120,"x_max":887,"o":"m 120 0 l 120 938 l 231 938 l 231 470 l 236 470 l 731 938 l 872 938 l 436 527 l 887 0 l 747 0 l 352 462 l 231 367 l 231 0 l 120 0 m 395 -382 l 395 -312 l 421 -312 q 462 -299 448 -312 q 477 -257 477 -285 l 477 -231 l 433 -231 l 433 -118 l 546 -118 l 546 -264 q 516 -351 546 -321 q 428 -382 485 -382 l 395 -382 z "},"L":{"ha":775,"x_min":120,"x_max":752,"o":"m 120 0 l 120 938 l 231 938 l 231 95 l 752 95 l 752 0 l 120 0 z "},"Ĺ":{"ha":775,"x_min":103,"x_max":752,"o":"m 120 0 l 120 938 l 231 938 l 231 95 l 752 95 l 752 0 l 120 0 m 103 1030 l 103 1035 l 228 1237 l 360 1237 l 360 1233 l 178 1030 l 103 1030 z "},"Ľ":{"ha":775,"x_min":120,"x_max":752,"o":"m 120 0 l 120 938 l 231 938 l 231 95 l 752 95 l 752 0 l 120 0 m 299 625 l 373 938 l 477 938 l 477 933 l 370 625 l 299 625 z "},"Ļ":{"ha":775,"x_min":120,"x_max":752,"o":"m 120 0 l 120 938 l 231 938 l 231 95 l 752 95 l 752 0 l 120 0 m 338 -382 l 338 -312 l 365 -312 q 406 -299 391 -312 q 420 -257 420 -285 l 420 -231 l 376 -231 l 376 -118 l 490 -118 l 490 -264 q 459 -351 490 -321 q 372 -382 428 -382 l 338 -382 z "},"Ł":{"ha":803,"x_min":23,"x_max":787,"o":"m 155 0 l 155 365 l 23 300 l 23 395 l 155 459 l 155 938 l 266 938 l 266 514 l 588 671 l 588 576 l 266 419 l 266 96 l 787 96 l 787 0 l 155 0 z "},"M":{"ha":1262,"x_min":120,"x_max":1141,"o":"m 120 0 l 120 938 l 288 938 l 628 150 l 633 150 l 975 938 l 1141 938 l 1141 0 l 1030 0 l 1030 821 l 1025 821 l 671 0 l 583 0 l 229 822 l 225 822 l 225 0 l 120 0 z "},"N":{"ha":1076,"x_min":120,"x_max":956,"o":"m 956 0 l 828 0 l 229 800 l 225 800 l 225 0 l 120 0 l 120 938 l 251 938 l 847 138 l 852 138 l 852 938 l 956 938 l 956 0 z "},"Ń":{"ha":1076,"x_min":120,"x_max":956,"o":"m 956 0 l 828 0 l 229 800 l 225 800 l 225 0 l 120 0 l 120 938 l 251 938 l 847 138 l 852 138 l 852 938 l 956 938 l 956 0 m 479 1030 l 479 1035 l 604 1237 l 736 1237 l 736 1233 l 554 1030 l 479 1030 z "},"Ň":{"ha":1076,"x_min":120,"x_max":956,"o":"m 956 0 l 828 0 l 229 800 l 225 800 l 225 0 l 120 0 l 120 938 l 251 938 l 847 138 l 852 138 l 852 938 l 956 938 l 956 0 m 498 1030 l 339 1233 l 339 1237 l 411 1237 l 550 1112 l 691 1237 l 765 1237 l 765 1233 l 604 1030 l 498 1030 z "},"Ņ":{"ha":1076,"x_min":120,"x_max":956,"o":"m 956 0 l 828 0 l 229 800 l 225 800 l 225 0 l 120 0 l 120 938 l 251 938 l 847 138 l 852 138 l 852 938 l 956 938 l 956 0 m 429 -382 l 429 -312 l 456 -312 q 497 -299 483 -312 q 512 -257 512 -285 l 512 -231 l 468 -231 l 468 -118 l 581 -118 l 581 -264 q 550 -351 581 -321 q 463 -382 520 -382 l 429 -382 z "},"Ñ":{"ha":1076,"x_min":120,"x_max":956,"o":"m 956 0 l 828 0 l 229 800 l 225 800 l 225 0 l 120 0 l 120 938 l 251 938 l 847 138 l 852 138 l 852 938 l 956 938 l 956 0 m 316 1028 q 359 1150 323 1106 q 455 1194 395 1194 q 528 1174 494 1194 q 594 1132 563 1153 q 653 1111 625 1111 q 726 1194 709 1111 l 788 1194 q 744 1073 780 1118 q 648 1028 708 1028 q 577 1049 611 1028 q 512 1090 543 1069 q 451 1111 480 1111 q 403 1091 420 1111 q 378 1028 387 1071 l 316 1028 z "},"Ŋ":{"ha":1076,"x_min":120,"x_max":956,"o":"m 649 -208 l 649 -116 l 852 -116 l 852 0 l 229 800 l 225 800 l 225 0 l 120 0 l 120 938 l 251 938 l 847 172 l 852 172 l 852 938 l 956 938 l 956 -104 q 928 -182 956 -156 q 852 -208 900 -208 l 649 -208 z "},"O":{"ha":1065,"x_min":65,"x_max":1000,"o":"m 532 -14 q 286 46 391 -14 q 123 214 181 105 q 65 469 65 323 q 123 724 65 616 q 286 892 181 832 q 532 951 391 951 q 780 892 675 951 q 943 724 885 832 q 1000 469 1000 616 q 942 214 1000 323 q 780 46 884 105 q 532 -14 675 -14 m 532 83 q 792 186 697 83 q 887 469 887 289 q 792 752 887 649 q 532 854 698 854 q 273 752 368 854 q 178 469 178 649 q 273 186 178 288 q 532 83 368 83 z "},"Ó":{"ha":1065,"x_min":65,"x_max":1000,"o":"m 532 -14 q 286 46 391 -14 q 123 214 181 105 q 65 469 65 323 q 123 724 65 616 q 286 892 181 832 q 532 951 391 951 q 780 892 675 951 q 943 724 885 832 q 1000 469 1000 616 q 942 214 1000 323 q 780 46 884 105 q 532 -14 675 -14 m 532 83 q 792 186 697 83 q 887 469 887 289 q 792 752 887 649 q 532 854 698 854 q 273 752 368 854 q 178 469 178 649 q 273 186 178 288 q 532 83 368 83 m 459 1030 l 459 1035 l 584 1237 l 716 1237 l 716 1233 l 535 1030 l 459 1030 z "},"Ô":{"ha":1065,"x_min":65,"x_max":1000,"o":"m 532 -14 q 286 46 391 -14 q 123 214 181 105 q 65 469 65 323 q 123 724 65 616 q 286 892 181 832 q 532 951 391 951 q 780 892 675 951 q 943 724 885 832 q 1000 469 1000 616 q 942 214 1000 323 q 780 46 884 105 q 532 -14 675 -14 m 532 83 q 792 186 697 83 q 887 469 887 289 q 792 752 887 649 q 532 854 698 854 q 273 752 368 854 q 178 469 178 649 q 273 186 178 288 q 532 83 368 83 m 319 1030 l 319 1035 l 478 1237 l 584 1237 l 745 1035 l 745 1030 l 671 1030 l 530 1152 l 391 1030 l 319 1030 z "},"Ö":{"ha":1065,"x_min":65,"x_max":1000,"o":"m 532 -14 q 286 46 391 -14 q 123 214 181 105 q 65 469 65 323 q 123 724 65 616 q 286 892 181 832 q 532 951 391 951 q 780 892 675 951 q 943 724 885 832 q 1000 469 1000 616 q 942 214 1000 323 q 780 46 884 105 q 532 -14 675 -14 m 532 83 q 792 186 697 83 q 887 469 887 289 q 792 752 887 649 q 532 854 698 854 q 273 752 368 854 q 178 469 178 649 q 273 186 178 288 q 532 83 368 83 m 668 1043 q 620 1063 640 1043 q 600 1111 600 1083 q 620 1159 600 1139 q 668 1179 640 1179 q 716 1159 696 1179 q 736 1111 736 1139 q 716 1063 736 1083 q 668 1043 696 1043 m 397 1043 q 349 1063 369 1043 q 329 1111 329 1083 q 349 1159 329 1139 q 397 1179 369 1179 q 445 1159 425 1179 q 465 1111 465 1139 q 445 1063 465 1083 q 397 1043 425 1043 z "},"Ò":{"ha":1065,"x_min":65,"x_max":1000,"o":"m 532 -14 q 286 46 391 -14 q 123 214 181 105 q 65 469 65 323 q 123 724 65 616 q 286 892 181 832 q 532 951 391 951 q 780 892 675 951 q 943 724 885 832 q 1000 469 1000 616 q 942 214 1000 323 q 780 46 884 105 q 532 -14 675 -14 m 532 83 q 792 186 697 83 q 887 469 887 289 q 792 752 887 649 q 532 854 698 854 q 273 752 368 854 q 178 469 178 649 q 273 186 178 288 q 532 83 368 83 m 529 1030 l 348 1233 l 348 1237 l 478 1237 l 605 1035 l 605 1030 l 529 1030 z "},"Ő":{"ha":1065,"x_min":65,"x_max":1000,"o":"m 532 -14 q 286 46 391 -14 q 123 214 181 105 q 65 469 65 323 q 123 724 65 616 q 286 892 181 832 q 532 951 391 951 q 780 892 675 951 q 943 724 885 832 q 1000 469 1000 616 q 942 214 1000 323 q 780 46 884 105 q 532 -14 675 -14 m 532 83 q 792 186 697 83 q 887 469 887 289 q 792 752 887 649 q 532 854 698 854 q 273 752 368 854 q 178 469 178 649 q 273 186 178 288 q 532 83 368 83 m 578 1030 l 578 1035 l 690 1237 l 809 1237 l 809 1233 l 644 1030 l 578 1030 m 351 1030 l 351 1035 l 462 1237 l 582 1237 l 582 1233 l 416 1030 l 351 1030 z "},"Ō":{"ha":1065,"x_min":65,"x_max":1000,"o":"m 532 -14 q 286 46 391 -14 q 123 214 181 105 q 65 469 65 323 q 123 724 65 616 q 286 892 181 832 q 532 951 391 951 q 780 892 675 951 q 943 724 885 832 q 1000 469 1000 616 q 942 214 1000 323 q 780 46 884 105 q 532 -14 675 -14 m 532 83 q 792 186 697 83 q 887 469 887 289 q 792 752 887 649 q 532 854 698 854 q 273 752 368 854 q 178 469 178 649 q 273 186 178 288 q 532 83 368 83 m 319 1073 l 319 1149 l 745 1149 l 745 1073 l 319 1073 z "},"Ø":{"ha":1065,"x_min":65,"x_max":1000,"o":"m 207 -57 l 139 -8 l 214 97 q 104 255 144 161 q 65 469 65 350 q 123 724 65 616 q 286 892 181 832 q 532 951 391 951 q 782 890 677 951 l 856 994 l 926 946 l 851 841 q 961 683 922 778 q 1000 469 1000 589 q 942 214 1000 323 q 780 46 884 105 q 532 -14 675 -14 q 282 49 390 -14 l 207 -57 m 275 183 l 722 808 q 532 854 642 854 q 273 752 368 854 q 178 469 178 649 q 204 306 178 377 q 275 183 229 234 m 532 83 q 792 186 697 83 q 887 469 887 289 q 862 633 887 561 q 789 755 837 705 l 341 131 q 532 83 422 83 z "},"Õ":{"ha":1065,"x_min":65,"x_max":1000,"o":"m 532 -14 q 286 46 391 -14 q 123 214 181 105 q 65 469 65 323 q 123 724 65 616 q 286 892 181 832 q 532 951 391 951 q 780 892 675 951 q 943 724 885 832 q 1000 469 1000 616 q 942 214 1000 323 q 780 46 884 105 q 532 -14 675 -14 m 532 83 q 792 186 697 83 q 887 469 887 289 q 792 752 887 649 q 532 854 698 854 q 273 752 368 854 q 178 469 178 649 q 273 186 178 288 q 532 83 368 83 m 296 1028 q 339 1150 303 1106 q 435 1194 375 1194 q 509 1174 475 1194 q 574 1132 543 1153 q 633 1111 605 1111 q 706 1194 690 1111 l 769 1194 q 725 1073 760 1118 q 628 1028 689 1028 q 557 1049 591 1028 q 492 1090 523 1069 q 432 1111 461 1111 q 384 1091 400 1111 q 359 1028 367 1071 l 296 1028 z "},"Œ":{"ha":1528,"x_min":65,"x_max":1470,"o":"m 522 -14 q 285 47 388 -14 q 123 218 182 109 q 65 469 65 328 q 123 720 65 611 q 285 890 182 829 q 522 951 388 951 q 716 906 635 951 q 825 792 797 860 l 830 792 l 830 938 l 1470 938 l 1470 843 l 940 843 l 940 532 l 1446 532 l 1446 440 l 940 440 l 940 95 l 1470 95 l 1470 0 l 830 0 l 830 146 l 825 146 q 716 32 797 78 q 522 -14 635 -14 m 532 78 q 685 109 618 78 q 790 197 751 140 q 829 329 829 253 l 829 609 q 790 741 829 685 q 685 829 751 797 q 532 860 618 860 q 350 809 431 860 q 224 670 270 758 q 178 469 178 582 q 224 268 178 356 q 350 128 270 179 q 532 78 431 78 z "},"P":{"ha":891,"x_min":120,"x_max":854,"o":"m 120 0 l 120 938 l 531 938 q 771 861 688 938 q 854 653 854 785 q 770 445 854 522 q 531 368 686 368 l 231 368 l 231 0 l 120 0 m 231 461 l 527 461 q 688 513 633 461 q 743 653 743 565 q 688 793 743 742 q 527 845 633 845 l 231 845 l 231 461 z "},"Þ":{"ha":891,"x_min":120,"x_max":854,"o":"m 120 0 l 120 938 l 231 938 l 231 764 l 531 764 q 771 688 688 764 q 854 479 854 611 q 770 271 854 348 q 531 194 686 194 l 231 194 l 231 0 l 120 0 m 231 287 l 527 287 q 688 339 633 287 q 743 479 743 391 q 688 620 743 568 q 527 671 633 671 l 231 671 l 231 287 z "},"Q":{"ha":1065,"x_min":65,"x_max":1000,"o":"m 589 -208 q 510 -181 538 -208 q 481 -104 481 -154 l 481 -12 q 260 63 354 1 q 116 229 167 125 q 65 469 65 333 q 123 724 65 616 q 286 892 181 832 q 532 951 391 951 q 780 892 675 951 q 943 724 885 832 q 1000 469 1000 616 q 950 230 1000 333 q 807 64 899 126 q 586 -10 714 2 l 586 -111 l 873 -111 l 873 -208 l 589 -208 m 532 81 q 792 184 697 81 q 887 469 887 287 q 792 754 887 652 q 532 856 698 856 q 273 754 368 856 q 178 469 178 652 q 273 184 178 287 q 532 81 368 81 z "},"R":{"ha":961,"x_min":120,"x_max":861,"o":"m 120 0 l 120 938 l 558 938 q 780 871 699 938 q 861 681 861 804 q 835 571 861 620 q 751 486 809 521 l 751 480 q 832 453 803 480 q 861 376 861 426 l 861 0 l 750 0 l 750 394 l 231 394 l 231 0 l 120 0 m 231 484 l 546 484 q 696 531 642 484 q 750 664 750 578 q 696 798 750 751 q 546 845 642 845 l 231 845 l 231 484 z "},"Ŕ":{"ha":961,"x_min":120,"x_max":861,"o":"m 120 0 l 120 938 l 558 938 q 780 871 699 938 q 861 681 861 804 q 835 571 861 620 q 751 486 809 521 l 751 480 q 832 453 803 480 q 861 376 861 426 l 861 0 l 750 0 l 750 394 l 231 394 l 231 0 l 120 0 m 231 484 l 546 484 q 696 531 642 484 q 750 664 750 578 q 696 798 750 751 q 546 845 642 845 l 231 845 l 231 484 m 354 1030 l 354 1035 l 479 1237 l 611 1237 l 611 1233 l 429 1030 l 354 1030 z "},"Ř":{"ha":961,"x_min":120,"x_max":861,"o":"m 120 0 l 120 938 l 558 938 q 780 871 699 938 q 861 681 861 804 q 835 571 861 620 q 751 486 809 521 l 751 480 q 832 453 803 480 q 861 376 861 426 l 861 0 l 750 0 l 750 394 l 231 394 l 231 0 l 120 0 m 231 484 l 546 484 q 696 531 642 484 q 750 664 750 578 q 696 798 750 751 q 546 845 642 845 l 231 845 l 231 484 m 373 1030 l 214 1233 l 214 1237 l 286 1237 l 425 1112 l 566 1237 l 640 1237 l 640 1233 l 479 1030 l 373 1030 z "},"Ŗ":{"ha":961,"x_min":120,"x_max":861,"o":"m 120 0 l 120 938 l 558 938 q 780 871 699 938 q 861 681 861 804 q 835 571 861 620 q 751 486 809 521 l 751 480 q 832 453 803 480 q 861 376 861 426 l 861 0 l 750 0 l 750 394 l 231 394 l 231 0 l 120 0 m 231 484 l 546 484 q 696 531 642 484 q 750 664 750 578 q 696 798 750 751 q 546 845 642 845 l 231 845 l 231 484 z "},"S":{"ha":880,"x_min":50,"x_max":803,"o":"m 448 -14 q 166 64 271 -14 q 50 278 60 141 l 169 278 q 245 134 171 185 q 451 83 318 83 q 631 126 568 83 q 694 252 694 169 q 650 359 694 317 q 519 418 605 402 l 344 451 q 162 537 226 475 q 98 692 98 600 q 188 881 98 811 q 429 951 277 951 q 682 878 584 951 q 796 674 780 804 l 677 674 q 424 854 641 854 q 264 814 322 854 q 207 700 207 774 q 378 546 207 580 l 560 510 q 741 424 679 487 q 803 260 803 360 q 708 58 803 131 q 448 -14 613 -14 z "},"Ś":{"ha":880,"x_min":50,"x_max":803,"o":"m 448 -14 q 166 64 271 -14 q 50 278 60 141 l 169 278 q 245 134 171 185 q 451 83 318 83 q 631 126 568 83 q 694 252 694 169 q 650 359 694 317 q 519 418 605 402 l 344 451 q 162 537 226 475 q 98 692 98 600 q 188 881 98 811 q 429 951 277 951 q 682 878 584 951 q 796 674 780 804 l 677 674 q 424 854 641 854 q 264 814 322 854 q 207 700 207 774 q 378 546 207 580 l 560 510 q 741 424 679 487 q 803 260 803 360 q 708 58 803 131 q 448 -14 613 -14 m 356 1030 l 356 1035 l 481 1237 l 613 1237 l 613 1233 l 432 1030 l 356 1030 z "},"Š":{"ha":880,"x_min":50,"x_max":803,"o":"m 448 -14 q 166 64 271 -14 q 50 278 60 141 l 169 278 q 245 134 171 185 q 451 83 318 83 q 631 126 568 83 q 694 252 694 169 q 650 359 694 317 q 519 418 605 402 l 344 451 q 162 537 226 475 q 98 692 98 600 q 188 881 98 811 q 429 951 277 951 q 682 878 584 951 q 796 674 780 804 l 677 674 q 424 854 641 854 q 264 814 322 854 q 207 700 207 774 q 378 546 207 580 l 560 510 q 741 424 679 487 q 803 260 803 360 q 708 58 803 131 q 448 -14 613 -14 m 375 1030 l 216 1233 l 216 1237 l 288 1237 l 427 1112 l 568 1237 l 642 1237 l 642 1233 l 481 1030 l 375 1030 z "},"Ş":{"ha":880,"x_min":50,"x_max":803,"o":"m 448 -14 q 166 64 271 -14 q 50 278 60 141 l 169 278 q 245 134 171 185 q 451 83 318 83 q 631 126 568 83 q 694 252 694 169 q 650 359 694 317 q 519 418 605 402 l 344 451 q 162 537 226 475 q 98 692 98 600 q 188 881 98 811 q 429 951 277 951 q 682 878 584 951 q 796 674 780 804 l 677 674 q 424 854 641 854 q 264 814 322 854 q 207 700 207 774 q 378 546 207 580 l 560 510 q 741 424 679 487 q 803 260 803 360 q 708 58 803 131 q 448 -14 613 -14 m 328 -310 l 328 -234 l 481 -234 l 481 -200 q 447 -135 481 -153 q 361 -111 413 -117 l 436 35 l 506 35 l 454 -71 q 534 -109 501 -80 q 567 -206 567 -138 q 541 -280 567 -249 q 463 -310 514 -310 l 328 -310 z "},"Ș":{"ha":880,"x_min":50,"x_max":803,"o":"m 448 -14 q 166 64 271 -14 q 50 278 60 141 l 169 278 q 245 134 171 185 q 451 83 318 83 q 631 126 568 83 q 694 252 694 169 q 650 359 694 317 q 519 418 605 402 l 344 451 q 162 537 226 475 q 98 692 98 600 q 188 881 98 811 q 429 951 277 951 q 682 878 584 951 q 796 674 780 804 l 677 674 q 424 854 641 854 q 264 814 322 854 q 207 700 207 774 q 378 546 207 580 l 560 510 q 741 424 679 487 q 803 260 803 360 q 708 58 803 131 q 448 -14 613 -14 m 355 -382 l 355 -312 l 382 -312 q 423 -299 409 -312 q 438 -257 438 -285 l 438 -231 l 394 -231 l 394 -118 l 507 -118 l 507 -264 q 476 -351 507 -321 q 389 -382 446 -382 l 355 -382 z "},"ẞ":{"ha":1019,"x_min":120,"x_max":963,"o":"m 340 -1 l 340 94 l 610 94 q 784 143 716 94 q 852 286 852 192 q 785 427 852 380 q 611 475 718 475 l 543 475 l 543 549 l 799 838 l 799 843 l 231 843 l 231 0 l 120 0 l 120 833 q 149 910 120 883 q 230 938 178 938 l 921 938 l 921 843 l 676 568 l 676 564 q 823 521 758 557 q 925 425 888 485 q 963 286 963 366 q 918 135 963 199 q 798 36 874 71 q 627 0 722 1 l 340 -1 z "},"T":{"ha":856,"x_min":28,"x_max":829,"o":"m 484 0 l 373 0 l 373 843 l 28 843 l 28 938 l 829 938 l 829 843 l 484 843 l 484 0 z "},"Ť":{"ha":856,"x_min":28,"x_max":829,"o":"m 484 0 l 373 0 l 373 843 l 28 843 l 28 938 l 829 938 l 829 843 l 484 843 l 484 0 m 374 1030 l 215 1233 l 215 1237 l 287 1237 l 426 1112 l 567 1237 l 641 1237 l 641 1233 l 480 1030 l 374 1030 z "},"Ț":{"ha":856,"x_min":28,"x_max":829,"o":"m 484 0 l 373 0 l 373 843 l 28 843 l 28 938 l 829 938 l 829 843 l 484 843 l 484 0 m 331 -382 l 331 -312 l 358 -312 q 399 -299 384 -312 q 413 -257 413 -285 l 413 -231 l 369 -231 l 369 -118 l 483 -118 l 483 -264 q 452 -351 483 -321 q 365 -382 421 -382 l 331 -382 z "},"U":{"ha":995,"x_min":106,"x_max":889,"o":"m 494 -14 q 282 25 369 -14 q 151 142 196 65 q 106 331 106 219 l 106 938 l 218 938 l 218 331 q 287 146 218 207 q 500 86 356 86 q 709 147 639 86 q 780 330 780 208 l 780 938 l 889 938 l 889 329 q 786 75 889 163 q 494 -14 684 -14 z "},"Ú":{"ha":995,"x_min":106,"x_max":889,"o":"m 494 -14 q 282 25 369 -14 q 151 142 196 65 q 106 331 106 219 l 106 938 l 218 938 l 218 331 q 287 146 218 207 q 500 86 356 86 q 709 147 639 86 q 780 330 780 208 l 780 938 l 889 938 l 889 329 q 786 75 889 163 q 494 -14 684 -14 m 426 1030 l 426 1035 l 551 1237 l 683 1237 l 683 1233 l 501 1030 l 426 1030 z "},"Ŭ":{"ha":995,"x_min":106,"x_max":889,"o":"m 494 -14 q 282 25 369 -14 q 151 142 196 65 q 106 331 106 219 l 106 938 l 218 938 l 218 331 q 287 146 218 207 q 500 86 356 86 q 709 147 639 86 q 780 330 780 208 l 780 938 l 889 938 l 889 329 q 786 75 889 163 q 494 -14 684 -14 m 498 1030 q 398 1050 440 1030 q 332 1108 356 1069 q 301 1200 307 1146 l 370 1200 q 407 1139 378 1162 q 498 1116 436 1116 q 588 1139 559 1116 q 625 1200 617 1162 l 694 1200 q 664 1108 689 1146 q 598 1050 640 1069 q 498 1030 556 1030 z "},"Û":{"ha":995,"x_min":106,"x_max":889,"o":"m 494 -14 q 282 25 369 -14 q 151 142 196 65 q 106 331 106 219 l 106 938 l 218 938 l 218 331 q 287 146 218 207 q 500 86 356 86 q 709 147 639 86 q 780 330 780 208 l 780 938 l 889 938 l 889 329 q 786 75 889 163 q 494 -14 684 -14 m 286 1030 l 286 1035 l 444 1237 l 551 1237 l 712 1035 l 712 1030 l 638 1030 l 497 1152 l 358 1030 l 286 1030 z "},"Ü":{"ha":995,"x_min":106,"x_max":889,"o":"m 494 -14 q 282 25 369 -14 q 151 142 196 65 q 106 331 106 219 l 106 938 l 218 938 l 218 331 q 287 146 218 207 q 500 86 356 86 q 709 147 639 86 q 780 330 780 208 l 780 938 l 889 938 l 889 329 q 786 75 889 163 q 494 -14 684 -14 m 634 1043 q 586 1063 606 1043 q 566 1111 566 1083 q 586 1159 566 1139 q 634 1179 606 1179 q 682 1159 662 1179 q 703 1111 703 1139 q 682 1063 703 1083 q 634 1043 662 1043 m 363 1043 q 315 1063 336 1043 q 295 1111 295 1083 q 315 1159 295 1139 q 363 1179 336 1179 q 411 1159 391 1179 q 432 1111 432 1139 q 411 1063 432 1083 q 363 1043 391 1043 z "},"Ù":{"ha":995,"x_min":106,"x_max":889,"o":"m 494 -14 q 282 25 369 -14 q 151 142 196 65 q 106 331 106 219 l 106 938 l 218 938 l 218 331 q 287 146 218 207 q 500 86 356 86 q 709 147 639 86 q 780 330 780 208 l 780 938 l 889 938 l 889 329 q 786 75 889 163 q 494 -14 684 -14 m 495 1030 l 315 1233 l 315 1237 l 444 1237 l 572 1035 l 572 1030 l 495 1030 z "},"Ű":{"ha":995,"x_min":106,"x_max":889,"o":"m 494 -14 q 282 25 369 -14 q 151 142 196 65 q 106 331 106 219 l 106 938 l 218 938 l 218 331 q 287 146 218 207 q 500 86 356 86 q 709 147 639 86 q 780 330 780 208 l 780 938 l 889 938 l 889 329 q 786 75 889 163 q 494 -14 684 -14 m 544 1030 l 544 1035 l 656 1237 l 775 1237 l 775 1233 l 610 1030 l 544 1030 m 317 1030 l 317 1035 l 428 1237 l 549 1237 l 549 1233 l 382 1030 l 317 1030 z "},"Ū":{"ha":995,"x_min":106,"x_max":889,"o":"m 494 -14 q 282 25 369 -14 q 151 142 196 65 q 106 331 106 219 l 106 938 l 218 938 l 218 331 q 287 146 218 207 q 500 86 356 86 q 709 147 639 86 q 780 330 780 208 l 780 938 l 889 938 l 889 329 q 786 75 889 163 q 494 -14 684 -14 m 286 1073 l 286 1149 l 712 1149 l 712 1073 l 286 1073 z "},"Ų":{"ha":995,"x_min":106,"x_max":889,"o":"m 494 -14 q 282 25 369 -14 q 151 142 196 65 q 106 331 106 219 l 106 938 l 218 938 l 218 331 q 287 146 218 207 q 500 86 356 86 q 709 147 639 86 q 780 330 780 208 l 780 938 l 889 938 l 889 329 q 786 75 889 163 q 494 -14 684 -14 m 530 -278 q 451 -251 477 -278 q 426 -174 426 -223 q 466 -62 426 -115 q 552 19 506 -10 l 610 0 q 538 -80 561 -41 q 514 -174 514 -119 l 514 -201 l 641 -201 l 641 -278 l 530 -278 z "},"Ů":{"ha":995,"x_min":106,"x_max":889,"o":"m 494 -14 q 282 25 369 -14 q 151 142 196 65 q 106 331 106 219 l 106 938 l 218 938 l 218 331 q 287 146 218 207 q 500 86 356 86 q 709 147 639 86 q 780 330 780 208 l 780 938 l 889 938 l 889 329 q 786 75 889 163 q 494 -14 684 -14 m 499 993 q 420 1014 456 993 q 362 1070 383 1035 q 340 1149 340 1105 q 362 1230 340 1194 q 420 1285 383 1265 q 499 1306 456 1306 q 579 1285 543 1306 q 636 1230 615 1265 q 657 1149 657 1194 q 636 1070 657 1105 q 579 1014 615 1035 q 499 993 543 993 m 499 1064 q 559 1088 534 1064 q 584 1149 584 1112 q 559 1211 584 1186 q 499 1235 534 1235 q 439 1211 464 1235 q 413 1149 413 1186 q 439 1088 413 1112 q 499 1064 464 1064 z "},"V":{"ha":949,"x_min":14,"x_max":935,"o":"m 406 0 l 14 938 l 133 938 l 475 111 l 480 111 l 821 938 l 935 938 l 543 0 l 406 0 z "},"W":{"ha":1366,"x_min":42,"x_max":1324,"o":"m 321 0 l 42 938 l 155 938 l 382 132 l 388 132 l 620 938 l 735 938 l 980 132 l 985 132 l 1209 938 l 1324 938 l 1045 0 l 924 0 l 678 809 l 674 809 l 442 0 l 321 0 z "},"Ẃ":{"ha":1366,"x_min":42,"x_max":1324,"o":"m 321 0 l 42 938 l 155 938 l 382 132 l 388 132 l 620 938 l 735 938 l 980 132 l 985 132 l 1209 938 l 1324 938 l 1045 0 l 924 0 l 678 809 l 674 809 l 442 0 l 321 0 m 604 1030 l 604 1035 l 729 1237 l 861 1237 l 861 1233 l 679 1030 l 604 1030 z "},"Ŵ":{"ha":1366,"x_min":42,"x_max":1324,"o":"m 321 0 l 42 938 l 155 938 l 382 132 l 388 132 l 620 938 l 735 938 l 980 132 l 985 132 l 1209 938 l 1324 938 l 1045 0 l 924 0 l 678 809 l 674 809 l 442 0 l 321 0 m 464 1030 l 464 1035 l 623 1237 l 729 1237 l 890 1035 l 890 1030 l 816 1030 l 675 1152 l 536 1030 l 464 1030 z "},"Ẅ":{"ha":1366,"x_min":42,"x_max":1324,"o":"m 321 0 l 42 938 l 155 938 l 382 132 l 388 132 l 620 938 l 735 938 l 980 132 l 985 132 l 1209 938 l 1324 938 l 1045 0 l 924 0 l 678 809 l 674 809 l 442 0 l 321 0 m 813 1043 q 764 1063 785 1043 q 744 1111 744 1083 q 764 1159 744 1139 q 813 1179 785 1179 q 861 1159 840 1179 q 881 1111 881 1139 q 861 1063 881 1083 q 813 1043 840 1043 m 542 1043 q 494 1063 514 1043 q 473 1111 473 1083 q 494 1159 473 1139 q 542 1179 514 1179 q 590 1159 569 1179 q 610 1111 610 1139 q 590 1063 610 1083 q 542 1043 569 1043 z "},"Ẁ":{"ha":1366,"x_min":42,"x_max":1324,"o":"m 321 0 l 42 938 l 155 938 l 382 132 l 388 132 l 620 938 l 735 938 l 980 132 l 985 132 l 1209 938 l 1324 938 l 1045 0 l 924 0 l 678 809 l 674 809 l 442 0 l 321 0 m 674 1030 l 493 1233 l 493 1237 l 623 1237 l 750 1035 l 750 1030 l 674 1030 z "},"X":{"ha":891,"x_min":23,"x_max":868,"o":"m 23 0 l 377 488 l 49 938 l 172 938 l 447 563 l 453 563 l 726 938 l 843 938 l 514 491 l 868 0 l 742 0 l 447 413 l 441 413 l 141 0 l 23 0 z "},"Y":{"ha":856,"x_min":14,"x_max":843,"o":"m 373 0 l 373 354 l 14 938 l 144 938 l 429 466 l 434 466 l 722 938 l 843 938 l 484 356 l 484 0 l 373 0 z "},"Ý":{"ha":856,"x_min":14,"x_max":843,"o":"m 373 0 l 373 354 l 14 938 l 144 938 l 429 466 l 434 466 l 722 938 l 843 938 l 484 356 l 484 0 l 373 0 m 359 1030 l 359 1035 l 484 1237 l 616 1237 l 616 1233 l 434 1030 l 359 1030 z "},"Ŷ":{"ha":856,"x_min":14,"x_max":843,"o":"m 373 0 l 373 354 l 14 938 l 144 938 l 429 466 l 434 466 l 722 938 l 843 938 l 484 356 l 484 0 l 373 0 m 219 1030 l 219 1035 l 377 1237 l 484 1237 l 645 1035 l 645 1030 l 571 1030 l 429 1152 l 291 1030 l 219 1030 z "},"Ÿ":{"ha":856,"x_min":14,"x_max":843,"o":"m 373 0 l 373 354 l 14 938 l 144 938 l 429 466 l 434 466 l 722 938 l 843 938 l 484 356 l 484 0 l 373 0 m 567 1043 q 519 1063 539 1043 q 499 1111 499 1083 q 519 1159 499 1139 q 567 1179 539 1179 q 615 1159 595 1179 q 635 1111 635 1139 q 615 1063 635 1083 q 567 1043 595 1043 m 296 1043 q 248 1063 269 1043 q 228 1111 228 1083 q 248 1159 228 1139 q 296 1179 269 1179 q 344 1159 324 1179 q 365 1111 365 1139 q 344 1063 365 1083 q 296 1043 324 1043 z "},"Ỳ":{"ha":856,"x_min":14,"x_max":843,"o":"m 373 0 l 373 354 l 14 938 l 144 938 l 429 466 l 434 466 l 722 938 l 843 938 l 484 356 l 484 0 l 373 0 m 428 1030 l 248 1233 l 248 1237 l 377 1237 l 505 1035 l 505 1030 l 428 1030 z "},"Z":{"ha":833,"x_min":51,"x_max":782,"o":"m 51 0 l 51 83 l 632 843 l 72 843 l 72 938 l 769 938 l 769 854 l 188 95 l 782 95 l 782 0 l 51 0 z "},"Ź":{"ha":833,"x_min":51,"x_max":782,"o":"m 51 0 l 51 83 l 632 843 l 72 843 l 72 938 l 769 938 l 769 854 l 188 95 l 782 95 l 782 0 l 51 0 m 340 1030 l 340 1035 l 465 1237 l 597 1237 l 597 1233 l 416 1030 l 340 1030 z "},"Ž":{"ha":833,"x_min":51,"x_max":782,"o":"m 51 0 l 51 83 l 632 843 l 72 843 l 72 938 l 769 938 l 769 854 l 188 95 l 782 95 l 782 0 l 51 0 m 359 1030 l 200 1233 l 200 1237 l 272 1237 l 411 1112 l 552 1237 l 626 1237 l 626 1233 l 465 1030 l 359 1030 z "},"Ż":{"ha":833,"x_min":51,"x_max":782,"o":"m 51 0 l 51 83 l 632 843 l 72 843 l 72 938 l 769 938 l 769 854 l 188 95 l 782 95 l 782 0 l 51 0 m 413 1042 q 364 1062 384 1042 q 344 1111 344 1082 q 364 1160 344 1140 q 413 1181 384 1181 q 462 1160 442 1181 q 483 1111 483 1140 q 462 1062 483 1082 q 413 1042 442 1042 z "},"a":{"ha":775,"x_min":49,"x_max":711,"o":"m 299 -13 q 116 46 183 -13 q 49 197 49 104 q 114 351 49 296 q 303 405 179 405 l 553 405 l 553 438 q 362 616 553 616 q 176 498 207 616 l 65 498 q 161 653 81 597 q 366 708 242 708 q 582 641 507 708 q 657 446 657 573 l 657 116 l 711 116 l 711 0 l 590 0 l 590 104 l 542 104 q 442 19 506 51 q 299 -13 378 -13 m 313 78 q 433 105 378 78 q 521 180 488 133 q 553 284 553 227 l 553 322 l 311 322 q 150 201 150 322 q 194 111 150 145 q 313 78 237 78 z "},"á":{"ha":775,"x_min":49,"x_max":711,"o":"m 299 -13 q 116 46 183 -13 q 49 197 49 104 q 114 351 49 296 q 303 405 179 405 l 553 405 l 553 438 q 362 616 553 616 q 176 498 207 616 l 65 498 q 161 653 81 597 q 366 708 242 708 q 582 641 507 708 q 657 446 657 573 l 657 116 l 711 116 l 711 0 l 590 0 l 590 104 l 542 104 q 442 19 506 51 q 299 -13 378 -13 m 313 78 q 433 105 378 78 q 521 180 488 133 q 553 284 553 227 l 553 322 l 311 322 q 150 201 150 322 q 194 111 150 145 q 313 78 237 78 m 296 787 l 296 792 l 421 994 l 553 994 l 553 990 l 372 787 l 296 787 z "},"ă":{"ha":775,"x_min":49,"x_max":711,"o":"m 299 -13 q 116 46 183 -13 q 49 197 49 104 q 114 351 49 296 q 303 405 179 405 l 553 405 l 553 438 q 362 616 553 616 q 176 498 207 616 l 65 498 q 161 653 81 597 q 366 708 242 708 q 582 641 507 708 q 657 446 657 573 l 657 116 l 711 116 l 711 0 l 590 0 l 590 104 l 542 104 q 442 19 506 51 q 299 -13 378 -13 m 313 78 q 433 105 378 78 q 521 180 488 133 q 553 284 553 227 l 553 322 l 311 322 q 150 201 150 322 q 194 111 150 145 q 313 78 237 78 m 368 787 q 269 807 310 787 q 202 865 227 826 q 171 957 177 903 l 241 957 q 278 896 249 919 q 368 873 307 873 q 458 896 429 873 q 495 957 487 919 l 565 957 q 535 865 559 903 q 468 807 510 826 q 368 787 426 787 z "},"â":{"ha":775,"x_min":49,"x_max":711,"o":"m 299 -13 q 116 46 183 -13 q 49 197 49 104 q 114 351 49 296 q 303 405 179 405 l 553 405 l 553 438 q 362 616 553 616 q 176 498 207 616 l 65 498 q 161 653 81 597 q 366 708 242 708 q 582 641 507 708 q 657 446 657 573 l 657 116 l 711 116 l 711 0 l 590 0 l 590 104 l 542 104 q 442 19 506 51 q 299 -13 378 -13 m 313 78 q 433 105 378 78 q 521 180 488 133 q 553 284 553 227 l 553 322 l 311 322 q 150 201 150 322 q 194 111 150 145 q 313 78 237 78 m 156 787 l 156 792 l 315 994 l 421 994 l 582 792 l 582 787 l 508 787 l 367 909 l 228 787 l 156 787 z "},"ä":{"ha":775,"x_min":49,"x_max":711,"o":"m 299 -13 q 116 46 183 -13 q 49 197 49 104 q 114 351 49 296 q 303 405 179 405 l 553 405 l 553 438 q 362 616 553 616 q 176 498 207 616 l 65 498 q 161 653 81 597 q 366 708 242 708 q 582 641 507 708 q 657 446 657 573 l 657 116 l 711 116 l 711 0 l 590 0 l 590 104 l 542 104 q 442 19 506 51 q 299 -13 378 -13 m 313 78 q 433 105 378 78 q 521 180 488 133 q 553 284 553 227 l 553 322 l 311 322 q 150 201 150 322 q 194 111 150 145 q 313 78 237 78 m 505 800 q 457 820 477 800 q 436 868 436 840 q 457 916 436 896 q 505 936 477 936 q 553 916 532 936 q 573 868 573 896 q 553 820 573 840 q 505 800 532 800 m 234 800 q 186 820 206 800 q 166 868 166 840 q 186 916 166 896 q 234 936 206 936 q 282 916 262 936 q 302 868 302 896 q 282 820 302 840 q 234 800 262 800 z "},"à":{"ha":775,"x_min":49,"x_max":711,"o":"m 299 -13 q 116 46 183 -13 q 49 197 49 104 q 114 351 49 296 q 303 405 179 405 l 553 405 l 553 438 q 362 616 553 616 q 176 498 207 616 l 65 498 q 161 653 81 597 q 366 708 242 708 q 582 641 507 708 q 657 446 657 573 l 657 116 l 711 116 l 711 0 l 590 0 l 590 104 l 542 104 q 442 19 506 51 q 299 -13 378 -13 m 313 78 q 433 105 378 78 q 521 180 488 133 q 553 284 553 227 l 553 322 l 311 322 q 150 201 150 322 q 194 111 150 145 q 313 78 237 78 m 366 787 l 185 990 l 185 994 l 315 994 l 442 792 l 442 787 l 366 787 z "},"ā":{"ha":775,"x_min":49,"x_max":711,"o":"m 299 -13 q 116 46 183 -13 q 49 197 49 104 q 114 351 49 296 q 303 405 179 405 l 553 405 l 553 438 q 362 616 553 616 q 176 498 207 616 l 65 498 q 161 653 81 597 q 366 708 242 708 q 582 641 507 708 q 657 446 657 573 l 657 116 l 711 116 l 711 0 l 590 0 l 590 104 l 542 104 q 442 19 506 51 q 299 -13 378 -13 m 313 78 q 433 105 378 78 q 521 180 488 133 q 553 284 553 227 l 553 322 l 311 322 q 150 201 150 322 q 194 111 150 145 q 313 78 237 78 m 156 830 l 156 906 l 582 906 l 582 830 l 156 830 z "},"ą":{"ha":775,"x_min":49,"x_max":742,"o":"m 299 -13 q 116 46 183 -13 q 49 197 49 104 q 114 351 49 296 q 303 405 179 405 l 553 405 l 553 438 q 362 616 553 616 q 176 498 207 616 l 65 498 q 161 653 81 597 q 366 708 242 708 q 582 641 507 708 q 657 446 657 573 l 657 116 l 711 116 l 711 0 l 590 0 l 590 104 l 542 104 q 442 19 506 51 q 299 -13 378 -13 m 313 78 q 433 105 378 78 q 521 180 488 133 q 553 284 553 227 l 553 322 l 311 322 q 150 201 150 322 q 194 111 150 145 q 313 78 237 78 m 631 -278 q 552 -251 578 -278 q 527 -174 527 -223 q 567 -62 527 -115 q 653 19 606 -10 l 711 0 q 638 -80 662 -41 q 615 -174 615 -119 l 615 -201 l 742 -201 l 742 -278 l 631 -278 z "},"å":{"ha":775,"x_min":49,"x_max":711,"o":"m 299 -13 q 116 46 183 -13 q 49 197 49 104 q 114 351 49 296 q 303 405 179 405 l 553 405 l 553 438 q 362 616 553 616 q 176 498 207 616 l 65 498 q 161 653 81 597 q 366 708 242 708 q 582 641 507 708 q 657 446 657 573 l 657 116 l 711 116 l 711 0 l 590 0 l 590 104 l 542 104 q 442 19 506 51 q 299 -13 378 -13 m 313 78 q 433 105 378 78 q 521 180 488 133 q 553 284 553 227 l 553 322 l 311 322 q 150 201 150 322 q 194 111 150 145 q 313 78 237 78 m 369 785 q 299 803 331 785 q 247 853 266 822 q 228 924 228 884 q 247 994 228 963 q 299 1044 266 1025 q 369 1063 331 1063 q 440 1044 409 1063 q 491 994 472 1025 q 510 924 510 963 q 491 853 510 884 q 440 803 472 822 q 369 785 409 785 m 369 850 q 421 870 399 850 q 443 924 443 891 q 421 977 443 956 q 369 998 399 998 q 317 977 339 998 q 295 924 295 956 q 317 870 295 891 q 369 850 339 850 z "},"ã":{"ha":775,"x_min":49,"x_max":711,"o":"m 299 -13 q 116 46 183 -13 q 49 197 49 104 q 114 351 49 296 q 303 405 179 405 l 553 405 l 553 438 q 362 616 553 616 q 176 498 207 616 l 65 498 q 161 653 81 597 q 366 708 242 708 q 582 641 507 708 q 657 446 657 573 l 657 116 l 711 116 l 711 0 l 590 0 l 590 104 l 542 104 q 442 19 506 51 q 299 -13 378 -13 m 313 78 q 433 105 378 78 q 521 180 488 133 q 553 284 553 227 l 553 322 l 311 322 q 150 201 150 322 q 194 111 150 145 q 313 78 237 78 m 133 785 q 176 907 140 863 q 272 951 212 951 q 345 931 311 951 q 411 889 380 910 q 470 868 442 868 q 543 951 527 868 l 605 951 q 561 830 597 875 q 465 785 525 785 q 394 806 428 785 q 329 847 360 826 q 269 868 297 868 q 220 848 237 868 q 196 785 204 828 l 133 785 z "},"æ":{"ha":1262,"x_min":49,"x_max":1201,"o":"m 896 -14 q 722 27 800 -14 q 603 138 645 67 l 597 138 q 302 -13 505 -13 q 171 15 228 -13 q 81 91 113 43 q 49 204 49 140 q 119 362 49 306 q 316 418 190 418 l 552 418 l 552 438 q 501 569 552 523 q 358 616 450 616 q 237 586 284 616 q 176 498 191 556 l 65 498 q 162 651 81 594 q 362 708 243 708 q 521 675 455 708 q 619 579 588 641 l 624 579 q 740 674 671 640 q 889 708 809 708 q 1052 667 981 708 q 1161 554 1122 626 q 1201 387 1201 481 l 1201 334 l 650 334 q 722 150 655 220 q 895 81 789 81 q 1020 115 966 81 q 1093 207 1074 149 l 1199 207 q 1139 90 1182 140 q 1034 13 1096 41 q 896 -14 972 -14 m 314 78 q 486 135 419 78 q 552 284 552 192 l 552 334 l 314 334 q 193 302 236 334 q 150 208 150 269 q 196 114 150 150 q 314 78 241 78 m 657 418 l 1102 418 q 1035 562 1094 508 q 887 616 977 616 q 737 562 799 616 q 657 418 675 508 z "},"b":{"ha":856,"x_min":65,"x_max":796,"o":"m 470 -14 q 328 16 387 -14 q 234 104 269 46 l 185 104 l 185 0 l 65 0 l 65 116 l 123 116 l 123 972 l 231 972 l 231 576 l 236 576 q 332 675 269 641 q 479 708 395 708 q 649 665 578 708 q 758 541 720 622 q 796 347 796 459 q 758 154 796 235 q 646 30 719 73 q 470 -14 573 -14 m 455 79 q 626 149 565 79 q 688 347 688 220 q 626 545 688 475 q 455 616 565 616 q 293 558 354 616 q 231 404 231 500 l 231 291 q 293 137 231 194 q 455 79 354 79 z "},"c":{"ha":752,"x_min":60,"x_max":729,"o":"m 405 -14 q 222 31 300 -14 q 102 156 145 75 q 60 347 60 237 q 102 538 60 457 q 221 664 144 619 q 405 708 299 708 q 612 648 529 708 q 725 470 696 587 l 613 470 q 541 579 593 544 q 405 613 488 613 q 231 543 293 613 q 169 347 169 473 q 231 152 169 222 q 405 81 293 81 q 618 236 579 81 l 729 236 q 617 50 701 113 q 405 -14 532 -14 z "},"ć":{"ha":752,"x_min":60,"x_max":729,"o":"m 405 -14 q 222 31 300 -14 q 102 156 145 75 q 60 347 60 237 q 102 538 60 457 q 221 664 144 619 q 405 708 299 708 q 612 648 529 708 q 725 470 696 587 l 613 470 q 541 579 593 544 q 405 613 488 613 q 231 543 293 613 q 169 347 169 473 q 231 152 169 222 q 405 81 293 81 q 618 236 579 81 l 729 236 q 617 50 701 113 q 405 -14 532 -14 m 337 787 l 337 792 l 462 994 l 594 994 l 594 990 l 412 787 l 337 787 z "},"č":{"ha":752,"x_min":60,"x_max":729,"o":"m 405 -14 q 222 31 300 -14 q 102 156 145 75 q 60 347 60 237 q 102 538 60 457 q 221 664 144 619 q 405 708 299 708 q 612 648 529 708 q 725 470 696 587 l 613 470 q 541 579 593 544 q 405 613 488 613 q 231 543 293 613 q 169 347 169 473 q 231 152 169 222 q 405 81 293 81 q 618 236 579 81 l 729 236 q 617 50 701 113 q 405 -14 532 -14 m 355 787 l 197 990 l 197 994 l 269 994 l 407 869 l 549 994 l 623 994 l 623 990 l 462 787 l 355 787 z "},"ç":{"ha":752,"x_min":60,"x_max":729,"o":"m 405 -14 q 222 31 300 -14 q 102 156 145 75 q 60 347 60 237 q 102 538 60 457 q 221 664 144 619 q 405 708 299 708 q 612 648 529 708 q 725 470 696 587 l 613 470 q 541 579 593 544 q 405 613 488 613 q 231 543 293 613 q 169 347 169 473 q 231 152 169 222 q 405 81 293 81 q 618 236 579 81 l 729 236 q 617 50 701 113 q 405 -14 532 -14 m 285 -310 l 285 -234 l 439 -234 l 439 -200 q 405 -135 439 -153 q 318 -111 370 -117 l 394 35 l 463 35 l 411 -71 q 491 -109 458 -80 q 524 -206 524 -138 q 498 -280 524 -249 q 420 -310 471 -310 l 285 -310 z "},"ċ":{"ha":752,"x_min":60,"x_max":729,"o":"m 405 -14 q 222 31 300 -14 q 102 156 145 75 q 60 347 60 237 q 102 538 60 457 q 221 664 144 619 q 405 708 299 708 q 612 648 529 708 q 725 470 696 587 l 613 470 q 541 579 593 544 q 405 613 488 613 q 231 543 293 613 q 169 347 169 473 q 231 152 169 222 q 405 81 293 81 q 618 236 579 81 l 729 236 q 617 50 701 113 q 405 -14 532 -14 m 410 799 q 361 819 381 799 q 340 868 340 839 q 361 917 340 897 q 410 938 381 938 q 459 917 439 938 q 479 868 479 897 q 459 819 479 839 q 410 799 439 799 z "},"d":{"ha":856,"x_min":60,"x_max":792,"o":"m 387 -14 q 211 30 285 -14 q 99 154 138 73 q 60 347 60 235 q 98 541 60 459 q 208 665 137 622 q 377 708 279 708 q 525 675 463 708 q 620 576 588 641 l 625 576 l 625 972 l 734 972 l 734 116 l 792 116 l 792 0 l 671 0 l 671 104 l 623 104 q 529 16 588 46 q 387 -14 470 -14 m 402 79 q 564 137 502 79 q 625 291 625 194 l 625 404 q 564 558 625 500 q 402 616 502 616 q 230 545 292 616 q 169 347 169 475 q 230 149 169 220 q 402 79 292 79 z "},"ď":{"ha":949,"x_min":60,"x_max":981,"o":"m 387 -14 q 211 30 285 -14 q 99 154 138 73 q 60 347 60 235 q 98 541 60 459 q 208 665 137 622 q 377 708 279 708 q 525 675 463 708 q 620 576 588 641 l 625 576 l 625 972 l 734 972 l 734 116 l 792 116 l 792 0 l 671 0 l 671 104 l 623 104 q 529 16 588 46 q 387 -14 470 -14 m 402 79 q 564 137 502 79 q 625 291 625 194 l 625 404 q 564 558 625 500 q 402 616 502 616 q 230 545 292 616 q 169 347 169 475 q 230 149 169 220 q 402 79 292 79 m 803 660 l 877 972 l 981 972 l 981 968 l 875 660 l 803 660 z "},"đ":{"ha":833,"x_min":60,"x_max":819,"o":"m 377 -14 q 208 29 279 -14 q 98 149 137 72 q 60 330 60 227 q 98 511 60 434 q 208 631 137 588 q 377 674 279 674 q 525 640 463 674 q 620 542 588 606 l 625 542 l 625 795 l 373 795 l 373 872 l 625 872 l 625 972 l 734 972 l 734 872 l 819 872 l 819 795 l 734 795 l 734 0 l 625 0 l 625 118 l 619 118 q 377 -14 553 -14 m 402 79 q 564 137 502 79 q 625 291 625 194 l 625 369 q 564 523 625 465 q 402 581 502 581 q 230 513 292 581 q 169 330 169 444 q 230 147 169 215 q 402 79 292 79 z "},"ð":{"ha":833,"x_min":60,"x_max":773,"o":"m 414 -14 q 230 30 310 -14 q 105 150 150 73 q 60 328 60 227 q 105 508 60 429 q 227 630 149 586 q 407 674 306 674 q 640 581 547 674 l 648 581 q 538 718 613 648 q 360 852 463 787 q 137 968 257 917 l 137 972 l 297 972 q 489 863 402 929 q 640 716 576 797 q 738 543 704 634 q 773 359 773 451 q 729 163 773 247 q 604 32 684 79 q 414 -14 523 -14 m 409 76 q 546 111 487 76 q 639 206 605 145 q 672 348 672 267 q 609 522 672 458 q 436 586 546 586 q 295 552 356 586 q 197 458 233 517 q 162 322 162 398 q 193 194 162 250 q 281 108 225 139 q 409 76 337 76 m 201 712 l 167 774 l 595 986 l 631 924 l 201 712 z "},"e":{"ha":787,"x_min":60,"x_max":727,"o":"m 410 -14 q 225 31 303 -14 q 103 157 146 75 q 60 350 60 240 q 103 540 60 459 q 223 664 146 620 q 405 708 301 708 q 575 668 503 708 q 687 556 647 628 q 727 383 727 483 l 727 334 l 164 334 q 234 148 169 215 q 409 81 300 81 q 536 113 484 81 q 609 207 589 146 l 720 207 q 612 44 693 102 q 410 -14 530 -14 m 170 418 l 622 418 q 556 564 613 512 q 404 616 498 616 q 248 564 310 616 q 170 418 186 512 z "},"é":{"ha":787,"x_min":60,"x_max":727,"o":"m 410 -14 q 225 31 303 -14 q 103 157 146 75 q 60 350 60 240 q 103 540 60 459 q 223 664 146 620 q 405 708 301 708 q 575 668 503 708 q 687 556 647 628 q 727 383 727 483 l 727 334 l 164 334 q 234 148 169 215 q 409 81 300 81 q 536 113 484 81 q 609 207 589 146 l 720 207 q 612 44 693 102 q 410 -14 530 -14 m 170 418 l 622 418 q 556 564 613 512 q 404 616 498 616 q 248 564 310 616 q 170 418 186 512 m 321 787 l 321 792 l 446 994 l 578 994 l 578 990 l 396 787 l 321 787 z "},"ě":{"ha":787,"x_min":60,"x_max":727,"o":"m 410 -14 q 225 31 303 -14 q 103 157 146 75 q 60 350 60 240 q 103 540 60 459 q 223 664 146 620 q 405 708 301 708 q 575 668 503 708 q 687 556 647 628 q 727 383 727 483 l 727 334 l 164 334 q 234 148 169 215 q 409 81 300 81 q 536 113 484 81 q 609 207 589 146 l 720 207 q 612 44 693 102 q 410 -14 530 -14 m 170 418 l 622 418 q 556 564 613 512 q 404 616 498 616 q 248 564 310 616 q 170 418 186 512 m 339 787 l 181 990 l 181 994 l 252 994 l 391 869 l 532 994 l 606 994 l 606 990 l 446 787 l 339 787 z "},"ê":{"ha":787,"x_min":60,"x_max":727,"o":"m 410 -14 q 225 31 303 -14 q 103 157 146 75 q 60 350 60 240 q 103 540 60 459 q 223 664 146 620 q 405 708 301 708 q 575 668 503 708 q 687 556 647 628 q 727 383 727 483 l 727 334 l 164 334 q 234 148 169 215 q 409 81 300 81 q 536 113 484 81 q 609 207 589 146 l 720 207 q 612 44 693 102 q 410 -14 530 -14 m 170 418 l 622 418 q 556 564 613 512 q 404 616 498 616 q 248 564 310 616 q 170 418 186 512 m 181 787 l 181 792 l 339 994 l 446 994 l 606 792 l 606 787 l 532 787 l 391 909 l 252 787 l 181 787 z "},"ë":{"ha":787,"x_min":60,"x_max":727,"o":"m 410 -14 q 225 31 303 -14 q 103 157 146 75 q 60 350 60 240 q 103 540 60 459 q 223 664 146 620 q 405 708 301 708 q 575 668 503 708 q 687 556 647 628 q 727 383 727 483 l 727 334 l 164 334 q 234 148 169 215 q 409 81 300 81 q 536 113 484 81 q 609 207 589 146 l 720 207 q 612 44 693 102 q 410 -14 530 -14 m 170 418 l 622 418 q 556 564 613 512 q 404 616 498 616 q 248 564 310 616 q 170 418 186 512 m 529 800 q 481 820 501 800 q 461 868 461 840 q 481 916 461 896 q 529 936 501 936 q 577 916 557 936 q 597 868 597 896 q 577 820 597 840 q 529 800 557 800 m 258 800 q 210 820 230 800 q 190 868 190 840 q 210 916 190 896 q 258 936 230 936 q 306 916 286 936 q 326 868 326 896 q 306 820 326 840 q 258 800 286 800 z "},"ė":{"ha":787,"x_min":60,"x_max":727,"o":"m 410 -14 q 225 31 303 -14 q 103 157 146 75 q 60 350 60 240 q 103 540 60 459 q 223 664 146 620 q 405 708 301 708 q 575 668 503 708 q 687 556 647 628 q 727 383 727 483 l 727 334 l 164 334 q 234 148 169 215 q 409 81 300 81 q 536 113 484 81 q 609 207 589 146 l 720 207 q 612 44 693 102 q 410 -14 530 -14 m 170 418 l 622 418 q 556 564 613 512 q 404 616 498 616 q 248 564 310 616 q 170 418 186 512 m 394 799 q 344 819 365 799 q 324 868 324 839 q 344 917 324 897 q 394 938 365 938 q 443 917 422 938 q 463 868 463 897 q 443 819 463 839 q 394 799 422 799 z "},"è":{"ha":787,"x_min":60,"x_max":727,"o":"m 410 -14 q 225 31 303 -14 q 103 157 146 75 q 60 350 60 240 q 103 540 60 459 q 223 664 146 620 q 405 708 301 708 q 575 668 503 708 q 687 556 647 628 q 727 383 727 483 l 727 334 l 164 334 q 234 148 169 215 q 409 81 300 81 q 536 113 484 81 q 609 207 589 146 l 720 207 q 612 44 693 102 q 410 -14 530 -14 m 170 418 l 622 418 q 556 564 613 512 q 404 616 498 616 q 248 564 310 616 q 170 418 186 512 m 390 787 l 209 990 l 209 994 l 339 994 l 466 792 l 466 787 l 390 787 z "},"ē":{"ha":787,"x_min":60,"x_max":727,"o":"m 410 -14 q 225 31 303 -14 q 103 157 146 75 q 60 350 60 240 q 103 540 60 459 q 223 664 146 620 q 405 708 301 708 q 575 668 503 708 q 687 556 647 628 q 727 383 727 483 l 727 334 l 164 334 q 234 148 169 215 q 409 81 300 81 q 536 113 484 81 q 609 207 589 146 l 720 207 q 612 44 693 102 q 410 -14 530 -14 m 170 418 l 622 418 q 556 564 613 512 q 404 616 498 616 q 248 564 310 616 q 170 418 186 512 m 181 830 l 181 906 l 606 906 l 606 830 l 181 830 z "},"ę":{"ha":787,"x_min":60,"x_max":727,"o":"m 410 -14 q 225 31 303 -14 q 103 157 146 75 q 60 350 60 240 q 103 540 60 459 q 223 664 146 620 q 405 708 301 708 q 575 668 503 708 q 687 556 647 628 q 727 383 727 483 l 727 334 l 164 334 q 234 148 169 215 q 409 81 300 81 q 536 113 484 81 q 609 207 589 146 l 720 207 q 612 44 693 102 q 410 -14 530 -14 m 170 418 l 622 418 q 556 564 613 512 q 404 616 498 616 q 248 564 310 616 q 170 418 186 512 m 495 -278 q 417 -251 442 -278 q 391 -174 391 -223 q 431 -58 391 -112 q 517 25 471 -5 l 575 25 q 503 -65 527 -21 q 479 -170 479 -109 l 479 -201 l 606 -201 l 606 -278 l 495 -278 z "},"f":{"ha":475,"x_min":21,"x_max":468,"o":"m 168 0 l 168 611 l 21 611 l 21 694 l 169 694 l 169 868 q 198 946 169 920 q 278 972 228 972 l 468 972 l 468 889 l 275 889 l 275 694 l 454 694 l 454 611 l 277 611 l 277 0 l 168 0 z "},"g":{"ha":856,"x_min":56,"x_max":792,"o":"m 388 -292 q 160 -233 248 -292 q 56 -69 72 -174 l 171 -69 q 388 -197 204 -197 q 564 -142 502 -197 q 625 14 625 -88 l 625 132 l 619 132 q 530 35 593 69 q 384 0 468 0 q 212 43 285 0 q 100 166 139 87 q 60 354 60 245 q 148 613 60 517 q 387 708 236 708 q 529 678 470 708 q 623 590 588 648 l 671 590 l 671 694 l 792 694 l 792 579 l 734 579 l 734 6 q 643 -213 734 -134 q 388 -292 552 -292 m 410 95 q 565 152 506 95 q 625 301 625 208 l 625 407 q 565 557 625 500 q 410 613 506 613 q 233 545 297 613 q 169 354 169 477 q 233 163 169 231 q 410 95 297 95 z "},"ğ":{"ha":856,"x_min":56,"x_max":792,"o":"m 388 -292 q 160 -233 248 -292 q 56 -69 72 -174 l 171 -69 q 388 -197 204 -197 q 564 -142 502 -197 q 625 14 625 -88 l 625 132 l 619 132 q 530 35 593 69 q 384 0 468 0 q 212 43 285 0 q 100 166 139 87 q 60 354 60 245 q 148 613 60 517 q 387 708 236 708 q 529 678 470 708 q 623 590 588 648 l 671 590 l 671 694 l 792 694 l 792 579 l 734 579 l 734 6 q 643 -213 734 -134 q 388 -292 552 -292 m 410 95 q 565 152 506 95 q 625 301 625 208 l 625 407 q 565 557 625 500 q 410 613 506 613 q 233 545 297 613 q 169 354 169 477 q 233 163 169 231 q 410 95 297 95 m 416 787 q 316 807 358 787 q 249 865 274 826 q 219 957 225 903 l 288 957 q 325 896 296 919 q 416 873 354 873 q 506 896 477 873 q 543 957 535 919 l 612 957 q 582 865 606 903 q 516 807 558 826 q 416 787 473 787 z "},"ģ":{"ha":856,"x_min":56,"x_max":792,"o":"m 388 -292 q 160 -233 248 -292 q 56 -69 72 -174 l 171 -69 q 388 -197 204 -197 q 564 -142 502 -197 q 625 14 625 -88 l 625 132 l 619 132 q 530 35 593 69 q 384 0 468 0 q 212 43 285 0 q 100 166 139 87 q 60 354 60 245 q 148 613 60 517 q 387 708 236 708 q 529 678 470 708 q 623 590 588 648 l 671 590 l 671 694 l 792 694 l 792 579 l 734 579 l 734 6 q 643 -213 734 -134 q 388 -292 552 -292 m 410 95 q 565 152 506 95 q 625 301 625 208 l 625 407 q 565 557 625 500 q 410 613 506 613 q 233 545 297 613 q 169 354 169 477 q 233 163 169 231 q 410 95 297 95 m 362 813 l 362 958 q 393 1046 362 1015 q 480 1076 424 1076 l 514 1076 l 514 1007 l 487 1007 q 447 993 462 1007 q 432 951 432 979 l 432 926 l 476 926 l 476 813 l 362 813 z "},"ġ":{"ha":856,"x_min":56,"x_max":792,"o":"m 388 -292 q 160 -233 248 -292 q 56 -69 72 -174 l 171 -69 q 388 -197 204 -197 q 564 -142 502 -197 q 625 14 625 -88 l 625 132 l 619 132 q 530 35 593 69 q 384 0 468 0 q 212 43 285 0 q 100 166 139 87 q 60 354 60 245 q 148 613 60 517 q 387 708 236 708 q 529 678 470 708 q 623 590 588 648 l 671 590 l 671 694 l 792 694 l 792 579 l 734 579 l 734 6 q 643 -213 734 -134 q 388 -292 552 -292 m 410 95 q 565 152 506 95 q 625 301 625 208 l 625 407 q 565 557 625 500 q 410 613 506 613 q 233 545 297 613 q 169 354 169 477 q 233 163 169 231 q 410 95 297 95 m 417 799 q 367 819 388 799 q 347 868 347 839 q 367 917 347 897 q 417 938 388 938 q 466 917 446 938 q 486 868 486 897 q 466 819 486 839 q 417 799 446 799 z "},"h":{"ha":833,"x_min":100,"x_max":738,"o":"m 100 0 l 100 972 l 208 972 l 208 579 l 213 579 q 308 674 247 641 q 453 707 370 707 q 661 631 583 707 q 738 427 738 554 l 738 0 l 630 0 l 630 411 q 576 561 630 509 q 419 612 522 612 q 263 561 317 612 q 208 411 208 509 l 208 0 l 100 0 z "},"ħ":{"ha":833,"x_min":14,"x_max":738,"o":"m 100 0 l 100 795 l 14 795 l 14 872 l 100 872 l 100 972 l 208 972 l 208 872 l 461 872 l 461 795 l 208 795 l 208 544 l 213 544 q 308 639 247 606 q 453 672 370 672 q 661 596 583 672 q 738 392 738 520 l 738 0 l 630 0 l 630 376 q 576 526 630 475 q 419 578 522 578 q 263 526 317 578 q 208 376 208 475 l 208 0 l 100 0 z "},"i":{"ha":324,"x_min":93,"x_max":231,"o":"m 108 0 l 108 694 l 216 694 l 216 0 l 108 0 m 162 799 q 113 819 133 799 q 93 868 93 839 q 113 917 93 897 q 162 938 133 938 q 211 917 191 938 q 231 868 231 897 q 211 819 231 839 q 162 799 191 799 z "},"ı":{"ha":324,"x_min":108,"x_max":216,"o":"m 108 0 l 108 694 l 216 694 l 216 0 l 108 0 z "},"í":{"ha":324,"x_min":89,"x_max":346,"o":"m 108 0 l 108 694 l 216 694 l 216 0 l 108 0 m 89 787 l 89 792 l 214 994 l 346 994 l 346 990 l 164 787 l 89 787 z "},"î":{"ha":324,"x_min":-51,"x_max":375,"o":"m 108 0 l 108 694 l 216 694 l 216 0 l 108 0 m -51 787 l -51 792 l 108 994 l 214 994 l 375 792 l 375 787 l 301 787 l 160 909 l 21 787 l -51 787 z "},"ï":{"ha":324,"x_min":7,"x_max":317,"o":"m 108 0 l 108 694 l 216 694 l 216 0 l 108 0 m 256 800 q 212 819 229 800 q 194 868 194 839 q 212 917 194 898 q 256 936 229 936 q 300 917 282 936 q 317 868 317 898 q 300 819 317 839 q 256 800 282 800 m 68 800 q 24 819 42 800 q 7 868 7 839 q 24 917 7 898 q 68 936 42 936 q 112 917 95 936 q 130 868 130 898 q 112 819 130 839 q 68 800 95 800 z "},"ì":{"ha":324,"x_min":-22,"x_max":235,"o":"m 108 0 l 108 694 l 216 694 l 216 0 l 108 0 m 159 787 l -22 990 l -22 994 l 108 994 l 235 792 l 235 787 l 159 787 z "},"ī":{"ha":324,"x_min":19,"x_max":306,"o":"m 108 0 l 108 694 l 216 694 l 216 0 l 108 0 m 19 830 l 19 906 l 306 906 l 306 830 l 19 830 z "},"į":{"ha":324,"x_min":30,"x_max":245,"o":"m 108 0 l 108 694 l 216 694 l 216 0 l 108 0 m 162 799 q 113 819 133 799 q 93 868 93 839 q 113 917 93 897 q 162 938 133 938 q 211 917 191 938 q 231 868 231 897 q 211 819 231 839 q 162 799 191 799 m 134 -278 q 56 -251 81 -278 q 30 -174 30 -223 q 70 -62 30 -115 q 156 19 110 -10 l 214 0 q 142 -80 166 -41 q 118 -174 118 -119 l 118 -201 l 245 -201 l 245 -278 l 134 -278 z "},"ĳ":{"ha":634,"x_min":93,"x_max":558,"o":"m 108 0 l 108 694 l 216 694 l 216 0 l 108 0 m 162 799 q 113 819 133 799 q 93 868 93 839 q 113 917 93 897 q 162 938 133 938 q 211 917 191 938 q 231 868 231 897 q 211 819 231 839 q 162 799 191 799 m 279 -278 l 279 -194 l 436 -194 l 436 694 l 541 694 l 541 -174 q 512 -252 541 -226 q 432 -278 483 -278 l 279 -278 m 488 799 q 439 819 459 799 q 419 868 419 839 q 439 917 419 897 q 488 938 459 938 q 538 917 517 938 q 558 868 558 897 q 538 819 558 839 q 488 799 517 799 z "},"j":{"ha":310,"x_min":-45,"x_max":234,"o":"m -45 -278 l -45 -194 l 112 -194 l 112 694 l 216 694 l 216 -174 q 188 -252 216 -226 q 108 -278 159 -278 l -45 -278 m 164 799 q 115 819 135 799 q 95 868 95 839 q 115 917 95 897 q 164 938 135 938 q 214 917 193 938 q 234 868 234 897 q 214 819 234 839 q 164 799 193 799 z "},"ȷ":{"ha":310,"x_min":-45,"x_max":216,"o":"m -45 -278 l -45 -194 l 112 -194 l 112 694 l 216 694 l 216 -174 q 188 -252 216 -226 q 108 -278 159 -278 l -45 -278 z "},"k":{"ha":752,"x_min":100,"x_max":731,"o":"m 100 0 l 100 972 l 208 972 l 208 361 l 213 361 l 568 694 l 704 694 l 377 400 l 731 0 l 597 0 l 304 333 l 208 255 l 208 0 l 100 0 z "},"ķ":{"ha":752,"x_min":100,"x_max":731,"o":"m 100 0 l 100 972 l 208 972 l 208 361 l 213 361 l 568 694 l 704 694 l 377 400 l 731 0 l 597 0 l 304 333 l 208 255 l 208 0 l 100 0 m 269 -382 l 269 -312 l 295 -312 q 336 -299 322 -312 q 351 -257 351 -285 l 351 -231 l 307 -231 l 307 -118 l 420 -118 l 420 -264 q 389 -351 420 -321 q 302 -382 359 -382 l 269 -382 z "},"l":{"ha":324,"x_min":108,"x_max":216,"o":"m 108 0 l 108 972 l 216 972 l 216 0 l 108 0 z "},"ĺ":{"ha":324,"x_min":89,"x_max":346,"o":"m 108 0 l 108 972 l 216 972 l 216 0 l 108 0 m 89 1065 l 89 1069 l 214 1272 l 346 1272 l 346 1267 l 164 1065 l 89 1065 z "},"ľ":{"ha":440,"x_min":108,"x_max":471,"o":"m 108 0 l 108 972 l 216 972 l 216 0 l 108 0 m 293 660 l 367 972 l 471 972 l 471 968 l 365 660 l 293 660 z "},"ļ":{"ha":324,"x_min":65,"x_max":216,"o":"m 108 0 l 108 972 l 216 972 l 216 0 l 108 0 m 65 -382 l 65 -312 l 91 -312 q 133 -299 118 -312 q 147 -257 147 -285 l 147 -231 l 103 -231 l 103 -118 l 216 -118 l 216 -264 q 186 -351 216 -321 q 98 -382 155 -382 l 65 -382 z "},"ł":{"ha":394,"x_min":23,"x_max":370,"o":"m 142 0 l 142 380 l 23 317 l 23 405 l 142 468 l 142 972 l 251 972 l 251 523 l 370 586 l 370 498 l 251 435 l 251 0 l 142 0 z "},"m":{"ha":1296,"x_min":65,"x_max":1201,"o":"m 123 0 l 123 579 l 65 579 l 65 694 l 185 694 l 185 590 l 243 590 q 328 677 271 647 q 463 707 384 707 q 601 674 544 707 q 692 569 659 640 l 696 569 q 936 707 766 707 q 1131 635 1061 707 q 1201 434 1201 563 l 1201 0 l 1093 0 l 1093 420 q 904 612 1093 612 q 716 420 716 612 l 716 0 l 608 0 l 608 420 q 419 612 608 612 q 280 563 328 612 q 231 420 231 514 l 231 0 l 123 0 z "},"n":{"ha":856,"x_min":65,"x_max":762,"o":"m 123 0 l 123 579 l 65 579 l 65 694 l 185 694 l 185 590 l 234 590 q 332 678 269 648 q 476 707 395 707 q 684 631 606 707 q 762 427 762 554 l 762 0 l 653 0 l 653 411 q 599 561 653 509 q 442 612 545 612 q 286 561 340 612 q 231 411 231 509 l 231 0 l 123 0 z "},"ń":{"ha":856,"x_min":65,"x_max":762,"o":"m 123 0 l 123 579 l 65 579 l 65 694 l 185 694 l 185 590 l 234 590 q 332 678 269 648 q 476 707 395 707 q 684 631 606 707 q 762 427 762 554 l 762 0 l 653 0 l 653 411 q 599 561 653 509 q 442 612 545 612 q 286 561 340 612 q 231 411 231 509 l 231 0 l 123 0 m 368 787 l 368 792 l 493 994 l 625 994 l 625 990 l 443 787 l 368 787 z "},"ň":{"ha":856,"x_min":65,"x_max":762,"o":"m 123 0 l 123 579 l 65 579 l 65 694 l 185 694 l 185 590 l 234 590 q 332 678 269 648 q 476 707 395 707 q 684 631 606 707 q 762 427 762 554 l 762 0 l 653 0 l 653 411 q 599 561 653 509 q 442 612 545 612 q 286 561 340 612 q 231 411 231 509 l 231 0 l 123 0 m 387 787 l 228 990 l 228 994 l 300 994 l 439 869 l 580 994 l 654 994 l 654 990 l 493 787 l 387 787 z "},"ņ":{"ha":856,"x_min":65,"x_max":762,"o":"m 123 0 l 123 579 l 65 579 l 65 694 l 185 694 l 185 590 l 234 590 q 332 678 269 648 q 476 707 395 707 q 684 631 606 707 q 762 427 762 554 l 762 0 l 653 0 l 653 411 q 599 561 653 509 q 442 612 545 612 q 286 561 340 612 q 231 411 231 509 l 231 0 l 123 0 m 344 -382 l 344 -312 l 370 -312 q 411 -299 397 -312 q 426 -257 426 -285 l 426 -231 l 382 -231 l 382 -118 l 495 -118 l 495 -264 q 465 -351 495 -321 q 377 -382 434 -382 l 344 -382 z "},"ñ":{"ha":856,"x_min":65,"x_max":762,"o":"m 123 0 l 123 579 l 65 579 l 65 694 l 185 694 l 185 590 l 234 590 q 332 678 269 648 q 476 707 395 707 q 684 631 606 707 q 762 427 762 554 l 762 0 l 653 0 l 653 411 q 599 561 653 509 q 442 612 545 612 q 286 561 340 612 q 231 411 231 509 l 231 0 l 123 0 m 205 785 q 248 907 212 863 q 344 951 284 951 q 417 931 383 951 q 483 889 451 910 q 542 868 514 868 q 615 951 598 868 l 677 951 q 633 830 669 875 q 537 785 597 785 q 466 806 500 785 q 400 847 432 826 q 340 868 369 868 q 292 848 309 868 q 267 785 275 828 l 205 785 z "},"ŋ":{"ha":822,"x_min":65,"x_max":762,"o":"m 499 -278 l 499 -194 l 653 -194 l 653 411 q 599 561 653 509 q 442 612 545 612 q 286 561 340 612 q 231 411 231 509 l 231 0 l 123 0 l 123 579 l 65 579 l 65 694 l 185 694 l 185 590 l 234 590 q 332 678 269 648 q 476 707 395 707 q 684 631 606 707 q 762 427 762 554 l 762 -174 q 734 -252 762 -226 q 657 -278 706 -278 l 499 -278 z "},"o":{"ha":822,"x_min":60,"x_max":762,"o":"m 411 -14 q 226 31 304 -14 q 104 156 147 75 q 60 347 60 237 q 103 538 60 457 q 225 664 146 619 q 411 708 304 708 q 598 664 520 708 q 719 539 676 620 q 762 347 762 458 q 719 156 762 237 q 597 30 676 74 q 411 -14 519 -14 m 411 81 q 589 151 525 81 q 653 347 653 221 q 589 544 653 475 q 411 613 525 613 q 233 543 297 613 q 169 347 169 473 q 233 151 169 221 q 411 81 297 81 z "},"ó":{"ha":822,"x_min":60,"x_max":762,"o":"m 411 -14 q 226 31 304 -14 q 104 156 147 75 q 60 347 60 237 q 103 538 60 457 q 225 664 146 619 q 411 708 304 708 q 598 664 520 708 q 719 539 676 620 q 762 347 762 458 q 719 156 762 237 q 597 30 676 74 q 411 -14 519 -14 m 411 81 q 589 151 525 81 q 653 347 653 221 q 589 544 653 475 q 411 613 525 613 q 233 543 297 613 q 169 347 169 473 q 233 151 169 221 q 411 81 297 81 m 338 787 l 338 792 l 463 994 l 595 994 l 595 990 l 413 787 l 338 787 z "},"ô":{"ha":822,"x_min":60,"x_max":762,"o":"m 411 -14 q 226 31 304 -14 q 104 156 147 75 q 60 347 60 237 q 103 538 60 457 q 225 664 146 619 q 411 708 304 708 q 598 664 520 708 q 719 539 676 620 q 762 347 762 458 q 719 156 762 237 q 597 30 676 74 q 411 -14 519 -14 m 411 81 q 589 151 525 81 q 653 347 653 221 q 589 544 653 475 q 411 613 525 613 q 233 543 297 613 q 169 347 169 473 q 233 151 169 221 q 411 81 297 81 m 198 787 l 198 792 l 356 994 l 463 994 l 624 792 l 624 787 l 550 787 l 409 909 l 270 787 l 198 787 z "},"ö":{"ha":822,"x_min":60,"x_max":762,"o":"m 411 -14 q 226 31 304 -14 q 104 156 147 75 q 60 347 60 237 q 103 538 60 457 q 225 664 146 619 q 411 708 304 708 q 598 664 520 708 q 719 539 676 620 q 762 347 762 458 q 719 156 762 237 q 597 30 676 74 q 411 -14 519 -14 m 411 81 q 589 151 525 81 q 653 347 653 221 q 589 544 653 475 q 411 613 525 613 q 233 543 297 613 q 169 347 169 473 q 233 151 169 221 q 411 81 297 81 m 546 800 q 498 820 519 800 q 478 868 478 840 q 498 916 478 896 q 546 936 519 936 q 594 916 574 936 q 615 868 615 896 q 594 820 615 840 q 546 800 574 800 m 275 800 q 227 820 248 800 q 207 868 207 840 q 227 916 207 896 q 275 936 248 936 q 323 916 303 936 q 344 868 344 896 q 323 820 344 840 q 275 800 303 800 z "},"ò":{"ha":822,"x_min":60,"x_max":762,"o":"m 411 -14 q 226 31 304 -14 q 104 156 147 75 q 60 347 60 237 q 103 538 60 457 q 225 664 146 619 q 411 708 304 708 q 598 664 520 708 q 719 539 676 620 q 762 347 762 458 q 719 156 762 237 q 597 30 676 74 q 411 -14 519 -14 m 411 81 q 589 151 525 81 q 653 347 653 221 q 589 544 653 475 q 411 613 525 613 q 233 543 297 613 q 169 347 169 473 q 233 151 169 221 q 411 81 297 81 m 407 787 l 227 990 l 227 994 l 356 994 l 484 792 l 484 787 l 407 787 z "},"ő":{"ha":822,"x_min":60,"x_max":762,"o":"m 411 -14 q 226 31 304 -14 q 104 156 147 75 q 60 347 60 237 q 103 538 60 457 q 225 664 146 619 q 411 708 304 708 q 598 664 520 708 q 719 539 676 620 q 762 347 762 458 q 719 156 762 237 q 597 30 676 74 q 411 -14 519 -14 m 411 81 q 589 151 525 81 q 653 347 653 221 q 589 544 653 475 q 411 613 525 613 q 233 543 297 613 q 169 347 169 473 q 233 151 169 221 q 411 81 297 81 m 456 787 l 456 792 l 568 994 l 688 994 l 688 990 l 522 787 l 456 787 m 229 787 l 229 792 l 340 994 l 461 994 l 461 990 l 294 787 l 229 787 z "},"ō":{"ha":822,"x_min":60,"x_max":762,"o":"m 411 -14 q 226 31 304 -14 q 104 156 147 75 q 60 347 60 237 q 103 538 60 457 q 225 664 146 619 q 411 708 304 708 q 598 664 520 708 q 719 539 676 620 q 762 347 762 458 q 719 156 762 237 q 597 30 676 74 q 411 -14 519 -14 m 411 81 q 589 151 525 81 q 653 347 653 221 q 589 544 653 475 q 411 613 525 613 q 233 543 297 613 q 169 347 169 473 q 233 151 169 221 q 411 81 297 81 m 198 830 l 198 906 l 624 906 l 624 830 l 198 830 z "},"ø":{"ha":822,"x_min":60,"x_max":762,"o":"m 145 -42 l 80 12 l 147 94 q 83 204 105 140 q 60 347 60 269 q 103 538 60 457 q 225 664 146 619 q 411 708 304 708 q 613 655 528 708 l 677 734 l 742 681 l 676 602 q 762 347 762 506 q 719 156 762 237 q 597 30 676 74 q 411 -14 519 -14 q 211 39 294 -14 l 145 -42 m 213 169 l 551 580 q 486 608 521 600 q 411 617 451 617 q 229 544 297 617 q 160 347 160 471 q 213 169 160 242 m 410 78 q 594 151 527 78 q 662 347 662 225 q 648 448 662 400 q 610 528 633 495 l 272 117 q 410 78 333 78 z "},"õ":{"ha":822,"x_min":60,"x_max":762,"o":"m 411 -14 q 226 31 304 -14 q 104 156 147 75 q 60 347 60 237 q 103 538 60 457 q 225 664 146 619 q 411 708 304 708 q 598 664 520 708 q 719 539 676 620 q 762 347 762 458 q 719 156 762 237 q 597 30 676 74 q 411 -14 519 -14 m 411 81 q 589 151 525 81 q 653 347 653 221 q 589 544 653 475 q 411 613 525 613 q 233 543 297 613 q 169 347 169 473 q 233 151 169 221 q 411 81 297 81 m 175 785 q 218 907 182 863 q 314 951 253 951 q 387 931 353 951 q 453 889 421 910 q 512 868 484 868 q 584 951 568 868 l 647 951 q 603 830 639 875 q 507 785 567 785 q 436 806 470 785 q 370 847 402 826 q 310 868 339 868 q 262 848 279 868 q 237 785 245 828 l 175 785 z "},"œ":{"ha":1366,"x_min":60,"x_max":1306,"o":"m 409 -14 q 230 31 309 -14 q 106 156 152 75 q 60 347 60 237 q 106 539 60 458 q 230 664 152 620 q 409 708 309 708 q 583 670 506 708 q 703 556 660 631 l 708 556 q 827 670 752 631 q 992 708 902 708 q 1153 669 1082 708 q 1264 557 1223 630 q 1306 387 1306 485 l 1306 334 l 752 334 q 822 149 757 218 q 994 81 888 81 q 1120 116 1067 81 q 1192 207 1174 150 l 1303 207 q 1242 89 1286 138 q 1137 13 1199 39 q 1000 -14 1074 -14 q 830 27 906 -14 q 708 146 753 67 l 703 146 q 583 27 660 68 q 409 -14 506 -14 m 409 81 q 583 155 519 81 q 648 347 648 228 q 583 541 648 468 q 409 613 519 613 q 236 541 302 613 q 169 347 169 469 q 236 154 169 227 q 409 81 302 81 m 759 418 l 1201 418 q 1134 563 1193 510 q 986 616 1074 616 q 836 563 896 616 q 759 418 777 510 z "},"p":{"ha":856,"x_min":65,"x_max":796,"o":"m 123 -278 l 123 579 l 65 579 l 65 694 l 185 694 l 185 590 l 234 590 q 328 678 269 648 q 470 708 387 708 q 646 665 573 708 q 758 541 719 622 q 796 347 796 459 q 758 154 796 235 q 649 30 720 73 q 479 -14 578 -14 q 332 20 395 -14 q 236 118 269 54 l 231 118 l 231 -278 l 123 -278 m 455 79 q 626 149 565 79 q 688 347 688 220 q 626 545 688 475 q 455 616 565 616 q 293 558 354 616 q 231 404 231 500 l 231 291 q 293 137 231 194 q 455 79 354 79 z "},"þ":{"ha":833,"x_min":100,"x_max":773,"o":"m 100 -278 l 100 972 l 208 972 l 208 576 l 214 576 q 308 675 247 641 q 456 708 370 708 q 626 665 554 708 q 735 541 697 622 q 773 347 773 459 q 735 154 773 235 q 626 30 697 73 q 456 -14 554 -14 q 308 20 372 -14 q 213 118 245 54 l 208 118 l 208 -278 l 100 -278 m 432 79 q 603 149 542 79 q 664 347 664 220 q 603 545 664 475 q 432 616 542 616 q 270 558 331 616 q 208 404 208 500 l 208 291 q 270 137 208 194 q 432 79 331 79 z "},"q":{"ha":856,"x_min":60,"x_max":792,"o":"m 625 -278 l 625 118 l 620 118 q 525 20 588 54 q 377 -14 463 -14 q 208 30 279 -14 q 98 154 137 73 q 60 347 60 235 q 99 541 60 459 q 211 665 138 622 q 387 708 285 708 q 529 678 470 708 q 623 590 588 648 l 671 590 l 671 694 l 792 694 l 792 579 l 734 579 l 734 -278 l 625 -278 m 402 79 q 564 137 502 79 q 625 291 625 194 l 625 404 q 564 558 625 500 q 402 616 502 616 q 230 545 292 616 q 169 347 169 475 q 230 149 169 220 q 402 79 292 79 z "},"r":{"ha":567,"x_min":79,"x_max":539,"o":"m 137 0 l 137 579 l 79 579 l 79 694 l 199 694 l 199 567 l 248 567 q 339 664 278 628 q 483 699 399 699 l 539 699 l 539 606 l 477 606 q 307 542 368 606 q 245 366 245 477 l 245 0 l 137 0 z "},"ŕ":{"ha":567,"x_min":79,"x_max":539,"o":"m 137 0 l 137 579 l 79 579 l 79 694 l 199 694 l 199 567 l 248 567 q 339 664 278 628 q 483 699 399 699 l 539 699 l 539 606 l 477 606 q 307 542 368 606 q 245 366 245 477 l 245 0 l 137 0 m 266 787 l 266 792 l 391 994 l 523 994 l 523 990 l 341 787 l 266 787 z "},"ř":{"ha":567,"x_min":79,"x_max":552,"o":"m 137 0 l 137 579 l 79 579 l 79 694 l 199 694 l 199 567 l 248 567 q 339 664 278 628 q 483 699 399 699 l 539 699 l 539 606 l 477 606 q 307 542 368 606 q 245 366 245 477 l 245 0 l 137 0 m 285 787 l 126 990 l 126 994 l 198 994 l 337 869 l 478 994 l 552 994 l 552 990 l 391 787 l 285 787 z "},"ŗ":{"ha":567,"x_min":79,"x_max":539,"o":"m 137 0 l 137 579 l 79 579 l 79 694 l 199 694 l 199 567 l 248 567 q 339 664 278 628 q 483 699 399 699 l 539 699 l 539 606 l 477 606 q 307 542 368 606 q 245 366 245 477 l 245 0 l 137 0 m 96 -382 l 96 -312 l 123 -312 q 164 -299 149 -312 q 178 -257 178 -285 l 178 -231 l 134 -231 l 134 -118 l 248 -118 l 248 -264 q 217 -351 248 -321 q 130 -382 186 -382 l 96 -382 z "},"s":{"ha":683,"x_min":44,"x_max":639,"o":"m 358 -14 q 134 45 216 -14 q 44 208 52 103 l 153 208 q 212 109 161 141 q 361 76 263 76 q 538 190 538 76 q 511 261 538 236 q 419 297 484 286 l 267 325 q 79 506 79 360 q 149 654 79 600 q 343 708 220 708 q 545 653 469 708 q 632 498 620 597 l 525 498 q 468 589 513 559 q 341 618 422 618 q 222 591 264 618 q 181 512 181 564 q 208 450 181 472 q 296 416 235 427 l 447 388 q 593 323 546 369 q 639 198 639 277 q 566 42 639 97 q 358 -14 493 -14 z "},"ś":{"ha":683,"x_min":44,"x_max":639,"o":"m 358 -14 q 134 45 216 -14 q 44 208 52 103 l 153 208 q 212 109 161 141 q 361 76 263 76 q 538 190 538 76 q 511 261 538 236 q 419 297 484 286 l 267 325 q 79 506 79 360 q 149 654 79 600 q 343 708 220 708 q 545 653 469 708 q 632 498 620 597 l 525 498 q 468 589 513 559 q 341 618 422 618 q 222 591 264 618 q 181 512 181 564 q 208 450 181 472 q 296 416 235 427 l 447 388 q 593 323 546 369 q 639 198 639 277 q 566 42 639 97 q 358 -14 493 -14 m 270 787 l 270 792 l 395 994 l 527 994 l 527 990 l 345 787 l 270 787 z "},"š":{"ha":683,"x_min":44,"x_max":639,"o":"m 358 -14 q 134 45 216 -14 q 44 208 52 103 l 153 208 q 212 109 161 141 q 361 76 263 76 q 538 190 538 76 q 511 261 538 236 q 419 297 484 286 l 267 325 q 79 506 79 360 q 149 654 79 600 q 343 708 220 708 q 545 653 469 708 q 632 498 620 597 l 525 498 q 468 589 513 559 q 341 618 422 618 q 222 591 264 618 q 181 512 181 564 q 208 450 181 472 q 296 416 235 427 l 447 388 q 593 323 546 369 q 639 198 639 277 q 566 42 639 97 q 358 -14 493 -14 m 288 787 l 130 990 l 130 994 l 201 994 l 340 869 l 481 994 l 556 994 l 556 990 l 395 787 l 288 787 z "},"ş":{"ha":683,"x_min":44,"x_max":639,"o":"m 358 -14 q 134 45 216 -14 q 44 208 52 103 l 153 208 q 212 109 161 141 q 361 76 263 76 q 538 190 538 76 q 511 261 538 236 q 419 297 484 286 l 267 325 q 79 506 79 360 q 149 654 79 600 q 343 708 220 708 q 545 653 469 708 q 632 498 620 597 l 525 498 q 468 589 513 559 q 341 618 422 618 q 222 591 264 618 q 181 512 181 564 q 208 450 181 472 q 296 416 235 427 l 447 388 q 593 323 546 369 q 639 198 639 277 q 566 42 639 97 q 358 -14 493 -14 m 215 -310 l 215 -234 l 369 -234 l 369 -200 q 335 -135 369 -153 q 249 -111 301 -117 l 324 35 l 394 35 l 341 -71 q 422 -109 389 -80 q 455 -206 455 -138 q 428 -280 455 -249 q 351 -310 402 -310 l 215 -310 z "},"ș":{"ha":683,"x_min":44,"x_max":639,"o":"m 358 -14 q 134 45 216 -14 q 44 208 52 103 l 153 208 q 212 109 161 141 q 361 76 263 76 q 538 190 538 76 q 511 261 538 236 q 419 297 484 286 l 267 325 q 79 506 79 360 q 149 654 79 600 q 343 708 220 708 q 545 653 469 708 q 632 498 620 597 l 525 498 q 468 589 513 559 q 341 618 422 618 q 222 591 264 618 q 181 512 181 564 q 208 450 181 472 q 296 416 235 427 l 447 388 q 593 323 546 369 q 639 198 639 277 q 566 42 639 97 q 358 -14 493 -14 m 243 -382 l 243 -312 l 270 -312 q 311 -299 296 -312 q 325 -257 325 -285 l 325 -231 l 281 -231 l 281 -118 l 395 -118 l 395 -264 q 364 -351 395 -321 q 277 -382 333 -382 l 243 -382 z "},"ß":{"ha":833,"x_min":100,"x_max":773,"o":"m 324 -1 l 324 89 l 409 89 q 598 140 532 89 q 664 287 664 191 q 599 434 664 383 q 410 485 534 485 l 324 485 l 324 575 l 397 575 q 547 617 493 575 q 602 737 602 660 q 554 861 602 819 q 418 903 506 903 q 260 852 311 903 q 208 699 208 802 l 208 0 l 100 0 l 100 705 q 138 855 100 793 q 248 952 176 918 q 418 986 319 986 q 630 922 549 986 q 711 748 711 858 q 663 613 711 668 q 534 543 615 559 l 534 538 q 660 500 606 534 q 744 411 714 466 q 773 285 773 356 q 731 134 773 198 q 613 35 690 69 q 434 0 537 0 l 324 -1 z "},"t":{"ha":498,"x_min":21,"x_max":470,"o":"m 257 0 q 181 25 208 0 q 154 100 154 50 l 154 611 l 21 611 l 21 694 l 155 694 l 155 903 l 262 903 l 262 694 l 451 694 l 451 611 l 263 611 l 263 86 l 470 86 l 470 0 l 257 0 z "},"ť":{"ha":498,"x_min":21,"x_max":507,"o":"m 257 0 q 181 25 208 0 q 154 100 154 50 l 154 611 l 21 611 l 21 694 l 155 694 l 155 903 l 262 903 l 262 694 l 451 694 l 451 611 l 263 611 l 263 86 l 470 86 l 470 0 l 257 0 m 329 799 l 403 1111 l 507 1111 l 507 1106 l 400 799 l 329 799 z "},"ț":{"ha":498,"x_min":21,"x_max":470,"o":"m 257 0 q 181 25 208 0 q 154 100 154 50 l 154 611 l 21 611 l 21 694 l 155 694 l 155 903 l 262 903 l 262 694 l 451 694 l 451 611 l 263 611 l 263 86 l 470 86 l 470 0 l 257 0 m 218 -382 l 218 -312 l 244 -312 q 285 -299 271 -312 q 300 -257 300 -285 l 300 -231 l 256 -231 l 256 -118 l 369 -118 l 369 -264 q 339 -351 369 -321 q 251 -382 308 -382 l 218 -382 z "},"u":{"ha":856,"x_min":95,"x_max":792,"o":"m 377 -13 q 171 61 248 -13 q 95 260 95 135 l 95 694 l 204 694 l 204 284 q 256 134 204 185 q 406 82 308 82 q 567 135 509 82 q 625 284 625 189 l 625 694 l 734 694 l 734 116 l 792 116 l 792 0 l 671 0 l 671 104 l 623 104 q 524 17 587 47 q 377 -13 461 -13 z "},"ú":{"ha":856,"x_min":95,"x_max":792,"o":"m 377 -13 q 171 61 248 -13 q 95 260 95 135 l 95 694 l 204 694 l 204 284 q 256 134 204 185 q 406 82 308 82 q 567 135 509 82 q 625 284 625 189 l 625 694 l 734 694 l 734 116 l 792 116 l 792 0 l 671 0 l 671 104 l 623 104 q 524 17 587 47 q 377 -13 461 -13 m 343 787 l 343 792 l 468 994 l 600 994 l 600 990 l 418 787 l 343 787 z "},"ŭ":{"ha":856,"x_min":95,"x_max":792,"o":"m 377 -13 q 171 61 248 -13 q 95 260 95 135 l 95 694 l 204 694 l 204 284 q 256 134 204 185 q 406 82 308 82 q 567 135 509 82 q 625 284 625 189 l 625 694 l 734 694 l 734 116 l 792 116 l 792 0 l 671 0 l 671 104 l 623 104 q 524 17 587 47 q 377 -13 461 -13 m 414 787 q 315 807 356 787 q 248 865 273 826 q 218 957 223 903 l 287 957 q 324 896 295 919 q 414 873 353 873 q 505 896 476 873 q 542 957 534 919 l 611 957 q 581 865 605 903 q 514 807 557 826 q 414 787 472 787 z "},"û":{"ha":856,"x_min":95,"x_max":792,"o":"m 377 -13 q 171 61 248 -13 q 95 260 95 135 l 95 694 l 204 694 l 204 284 q 256 134 204 185 q 406 82 308 82 q 567 135 509 82 q 625 284 625 189 l 625 694 l 734 694 l 734 116 l 792 116 l 792 0 l 671 0 l 671 104 l 623 104 q 524 17 587 47 q 377 -13 461 -13 m 203 787 l 203 792 l 361 994 l 468 994 l 628 792 l 628 787 l 554 787 l 413 909 l 274 787 l 203 787 z "},"ü":{"ha":856,"x_min":95,"x_max":792,"o":"m 377 -13 q 171 61 248 -13 q 95 260 95 135 l 95 694 l 204 694 l 204 284 q 256 134 204 185 q 406 82 308 82 q 567 135 509 82 q 625 284 625 189 l 625 694 l 734 694 l 734 116 l 792 116 l 792 0 l 671 0 l 671 104 l 623 104 q 524 17 587 47 q 377 -13 461 -13 m 551 800 q 503 820 523 800 q 483 868 483 840 q 503 916 483 896 q 551 936 523 936 q 599 916 579 936 q 619 868 619 896 q 599 820 619 840 q 551 800 579 800 m 280 800 q 232 820 252 800 q 212 868 212 840 q 232 916 212 896 q 280 936 252 936 q 328 916 308 936 q 348 868 348 896 q 328 820 348 840 q 280 800 308 800 z "},"ù":{"ha":856,"x_min":95,"x_max":792,"o":"m 377 -13 q 171 61 248 -13 q 95 260 95 135 l 95 694 l 204 694 l 204 284 q 256 134 204 185 q 406 82 308 82 q 567 135 509 82 q 625 284 625 189 l 625 694 l 734 694 l 734 116 l 792 116 l 792 0 l 671 0 l 671 104 l 623 104 q 524 17 587 47 q 377 -13 461 -13 m 412 787 l 231 990 l 231 994 l 361 994 l 488 792 l 488 787 l 412 787 z "},"ű":{"ha":856,"x_min":95,"x_max":792,"o":"m 377 -13 q 171 61 248 -13 q 95 260 95 135 l 95 694 l 204 694 l 204 284 q 256 134 204 185 q 406 82 308 82 q 567 135 509 82 q 625 284 625 189 l 625 694 l 734 694 l 734 116 l 792 116 l 792 0 l 671 0 l 671 104 l 623 104 q 524 17 587 47 q 377 -13 461 -13 m 461 787 l 461 792 l 573 994 l 692 994 l 692 990 l 527 787 l 461 787 m 234 787 l 234 792 l 345 994 l 465 994 l 465 990 l 299 787 l 234 787 z "},"ū":{"ha":856,"x_min":95,"x_max":792,"o":"m 377 -13 q 171 61 248 -13 q 95 260 95 135 l 95 694 l 204 694 l 204 284 q 256 134 204 185 q 406 82 308 82 q 567 135 509 82 q 625 284 625 189 l 625 694 l 734 694 l 734 116 l 792 116 l 792 0 l 671 0 l 671 104 l 623 104 q 524 17 587 47 q 377 -13 461 -13 m 203 830 l 203 906 l 628 906 l 628 830 l 203 830 z "},"ų":{"ha":856,"x_min":95,"x_max":823,"o":"m 377 -13 q 171 61 248 -13 q 95 260 95 135 l 95 694 l 204 694 l 204 284 q 256 134 204 185 q 406 82 308 82 q 567 135 509 82 q 625 284 625 189 l 625 694 l 734 694 l 734 116 l 792 116 l 792 0 l 671 0 l 671 104 l 623 104 q 524 17 587 47 q 377 -13 461 -13 m 712 -278 q 633 -251 659 -278 q 608 -174 608 -223 q 648 -62 608 -115 q 734 19 688 -10 l 792 0 q 719 -80 743 -41 q 696 -174 696 -119 l 696 -201 l 823 -201 l 823 -278 l 712 -278 z "},"ů":{"ha":856,"x_min":95,"x_max":792,"o":"m 377 -13 q 171 61 248 -13 q 95 260 95 135 l 95 694 l 204 694 l 204 284 q 256 134 204 185 q 406 82 308 82 q 567 135 509 82 q 625 284 625 189 l 625 694 l 734 694 l 734 116 l 792 116 l 792 0 l 671 0 l 671 104 l 623 104 q 524 17 587 47 q 377 -13 461 -13 m 416 785 q 345 803 377 785 q 293 853 313 822 q 274 924 274 884 q 293 994 274 963 q 345 1044 313 1025 q 416 1063 377 1063 q 487 1044 455 1063 q 538 994 519 1025 q 557 924 557 963 q 538 853 557 884 q 487 803 519 822 q 416 785 455 785 m 416 850 q 468 870 446 850 q 490 924 490 891 q 468 977 490 956 q 416 998 446 998 q 363 977 385 998 q 341 924 341 956 q 363 870 341 891 q 416 850 385 850 z "},"v":{"ha":729,"x_min":7,"x_max":722,"o":"m 302 0 l 7 694 l 119 694 l 366 106 l 370 106 l 613 694 l 722 694 l 427 0 l 302 0 z "},"w":{"ha":1134,"x_min":21,"x_max":1113,"o":"m 238 0 l 21 694 l 134 694 l 303 127 l 309 127 l 509 694 l 627 694 l 829 127 l 834 127 l 1002 694 l 1113 694 l 897 0 l 772 0 l 569 572 l 565 572 l 363 0 l 238 0 z "},"ẃ":{"ha":1134,"x_min":21,"x_max":1113,"o":"m 238 0 l 21 694 l 134 694 l 303 127 l 309 127 l 509 694 l 627 694 l 829 127 l 834 127 l 1002 694 l 1113 694 l 897 0 l 772 0 l 569 572 l 565 572 l 363 0 l 238 0 m 494 787 l 494 792 l 619 994 l 751 994 l 751 990 l 569 787 l 494 787 z "},"ŵ":{"ha":1134,"x_min":21,"x_max":1113,"o":"m 238 0 l 21 694 l 134 694 l 303 127 l 309 127 l 509 694 l 627 694 l 829 127 l 834 127 l 1002 694 l 1113 694 l 897 0 l 772 0 l 569 572 l 565 572 l 363 0 l 238 0 m 354 787 l 354 792 l 513 994 l 619 994 l 780 792 l 780 787 l 706 787 l 565 909 l 426 787 l 354 787 z "},"ẅ":{"ha":1134,"x_min":21,"x_max":1113,"o":"m 238 0 l 21 694 l 134 694 l 303 127 l 309 127 l 509 694 l 627 694 l 829 127 l 834 127 l 1002 694 l 1113 694 l 897 0 l 772 0 l 569 572 l 565 572 l 363 0 l 238 0 m 703 800 q 655 820 675 800 q 634 868 634 840 q 655 916 634 896 q 703 936 675 936 q 751 916 730 936 q 771 868 771 896 q 751 820 771 840 q 703 800 730 800 m 432 800 q 384 820 404 800 q 363 868 363 840 q 384 916 363 896 q 432 936 404 936 q 480 916 459 936 q 500 868 500 896 q 480 820 500 840 q 432 800 459 800 z "},"ẁ":{"ha":1134,"x_min":21,"x_max":1113,"o":"m 238 0 l 21 694 l 134 694 l 303 127 l 309 127 l 509 694 l 627 694 l 829 127 l 834 127 l 1002 694 l 1113 694 l 897 0 l 772 0 l 569 572 l 565 572 l 363 0 l 238 0 m 564 787 l 383 990 l 383 994 l 513 994 l 640 792 l 640 787 l 564 787 z "},"x":{"ha":729,"x_min":21,"x_max":708,"o":"m 21 0 l 297 356 l 35 694 l 155 694 l 366 426 l 576 694 l 694 694 l 432 356 l 708 0 l 583 0 l 362 285 l 141 0 l 21 0 z "},"y":{"ha":729,"x_min":8,"x_max":722,"o":"m 73 -278 l 73 -192 l 245 -192 l 324 -5 l 8 694 l 120 694 l 373 127 l 378 127 l 618 694 l 722 694 l 427 0 l 353 -174 q 315 -249 332 -221 q 247 -278 297 -278 l 73 -278 z "},"ý":{"ha":729,"x_min":8,"x_max":722,"o":"m 73 -278 l 73 -192 l 245 -192 l 324 -5 l 8 694 l 120 694 l 373 127 l 378 127 l 618 694 l 722 694 l 427 0 l 353 -174 q 315 -249 332 -221 q 247 -278 297 -278 l 73 -278 m 292 787 l 292 792 l 417 994 l 549 994 l 549 990 l 367 787 l 292 787 z "},"ŷ":{"ha":729,"x_min":8,"x_max":722,"o":"m 73 -278 l 73 -192 l 245 -192 l 324 -5 l 8 694 l 120 694 l 373 127 l 378 127 l 618 694 l 722 694 l 427 0 l 353 -174 q 315 -249 332 -221 q 247 -278 297 -278 l 73 -278 m 152 787 l 152 792 l 310 994 l 417 994 l 578 792 l 578 787 l 503 787 l 362 909 l 223 787 l 152 787 z "},"ÿ":{"ha":729,"x_min":8,"x_max":722,"o":"m 73 -278 l 73 -192 l 245 -192 l 324 -5 l 8 694 l 120 694 l 373 127 l 378 127 l 618 694 l 722 694 l 427 0 l 353 -174 q 315 -249 332 -221 q 247 -278 297 -278 l 73 -278 m 500 800 q 452 820 472 800 q 432 868 432 840 q 452 916 432 896 q 500 936 472 936 q 548 916 528 936 q 568 868 568 896 q 548 820 568 840 q 500 800 528 800 m 229 800 q 181 820 201 800 q 161 868 161 840 q 181 916 161 896 q 229 936 201 936 q 277 916 257 936 q 297 868 297 896 q 277 820 297 840 q 229 800 257 800 z "},"ỳ":{"ha":729,"x_min":8,"x_max":722,"o":"m 73 -278 l 73 -192 l 245 -192 l 324 -5 l 8 694 l 120 694 l 373 127 l 378 127 l 618 694 l 722 694 l 427 0 l 353 -174 q 315 -249 332 -221 q 247 -278 297 -278 l 73 -278 m 361 787 l 181 990 l 181 994 l 310 994 l 438 792 l 438 787 l 361 787 z "},"z":{"ha":671,"x_min":51,"x_max":620,"o":"m 51 0 l 51 79 l 488 606 l 72 606 l 72 694 l 613 694 l 613 616 l 176 88 l 620 88 l 620 0 l 51 0 z "},"ź":{"ha":671,"x_min":51,"x_max":620,"o":"m 51 0 l 51 79 l 488 606 l 72 606 l 72 694 l 613 694 l 613 616 l 176 88 l 620 88 l 620 0 l 51 0 m 264 787 l 264 792 l 389 994 l 521 994 l 521 990 l 339 787 l 264 787 z "},"ž":{"ha":671,"x_min":51,"x_max":620,"o":"m 51 0 l 51 79 l 488 606 l 72 606 l 72 694 l 613 694 l 613 616 l 176 88 l 620 88 l 620 0 l 51 0 m 282 787 l 124 990 l 124 994 l 196 994 l 334 869 l 476 994 l 550 994 l 550 990 l 389 787 l 282 787 z "},"ż":{"ha":671,"x_min":51,"x_max":620,"o":"m 51 0 l 51 79 l 488 606 l 72 606 l 72 694 l 613 694 l 613 616 l 176 88 l 620 88 l 620 0 l 51 0 m 337 799 q 288 819 308 799 q 267 868 267 839 q 288 917 267 897 q 337 938 308 938 q 386 917 366 938 q 406 868 406 897 q 386 819 406 839 q 337 799 366 799 z "},"ﬁ":{"ha":799,"x_min":21,"x_max":706,"o":"m 168 0 l 168 611 l 21 611 l 21 694 l 169 694 l 169 868 q 198 946 169 920 q 278 972 228 972 l 468 972 l 468 889 l 275 889 l 275 694 l 454 694 l 454 611 l 277 611 l 277 0 l 168 0 m 582 0 l 582 694 l 691 694 l 691 0 l 582 0 m 637 799 q 587 819 608 799 q 567 868 567 839 q 587 917 567 897 q 637 938 608 938 q 686 917 666 938 q 706 868 706 897 q 686 819 706 839 q 637 799 666 799 z "},"ﬂ":{"ha":799,"x_min":21,"x_max":691,"o":"m 168 0 l 168 611 l 21 611 l 21 694 l 169 694 l 169 868 q 198 946 169 920 q 278 972 228 972 l 468 972 l 468 889 l 275 889 l 275 694 l 454 694 l 454 611 l 277 611 l 277 0 l 168 0 m 582 0 l 582 972 l 691 972 l 691 0 l 582 0 z "},"ª":{"ha":475,"x_min":42,"x_max":442,"o":"m 188 444 q 82 477 123 444 q 42 564 42 510 q 83 650 42 619 q 198 681 124 681 l 321 681 l 321 699 q 296 759 321 737 q 228 780 272 780 q 169 767 194 780 q 135 723 144 753 l 49 723 q 109 815 60 784 q 229 847 159 847 q 354 808 308 847 q 400 699 400 770 l 400 535 l 442 535 l 442 451 l 359 451 l 359 523 l 324 523 q 268 466 303 487 q 188 444 233 444 m 204 512 q 288 539 255 512 q 321 609 321 567 l 321 620 l 203 620 q 119 567 119 620 q 142 527 119 542 q 204 512 164 512 z "},"º":{"ha":486,"x_min":37,"x_max":449,"o":"m 244 438 q 96 494 155 438 q 37 642 37 550 q 96 791 37 735 q 244 847 155 847 q 391 792 333 847 q 449 642 449 737 q 391 492 449 547 q 244 438 332 438 m 244 512 q 331 547 297 512 q 365 642 365 583 q 331 738 365 704 q 244 773 297 773 q 157 738 191 773 q 123 642 123 704 q 157 547 123 583 q 244 512 191 512 z "},"μ":{"ha":833,"x_min":100,"x_max":734,"o":"m 100 -278 l 100 694 l 208 694 l 208 284 q 262 136 208 190 q 410 82 315 82 q 565 138 506 82 q 625 284 625 193 l 625 694 l 734 694 l 734 0 l 624 0 l 624 124 l 619 124 q 526 23 588 59 q 385 -13 464 -13 q 290 3 332 -13 q 211 49 248 19 l 206 49 l 206 -278 l 100 -278 z "},"⁄":{"ha":69,"x_min":-269,"x_max":338,"o":"m -269 0 l 248 938 l 338 938 l -178 0 l -269 0 z "},"½":{"ha":1282,"x_min":128,"x_max":1093,"o":"m 278 451 l 278 845 l 131 753 l 128 753 l 128 837 l 288 938 l 366 938 l 366 451 l 278 451 m 713 0 l 713 59 l 932 244 q 987 300 972 278 q 1001 350 1001 323 q 976 408 1001 385 q 903 431 950 431 q 830 409 856 431 q 797 340 803 387 l 713 340 q 766 455 718 410 q 906 500 815 500 q 1036 458 988 500 q 1083 352 1083 417 q 1063 275 1083 308 q 998 205 1042 242 l 841 74 l 841 72 l 1093 72 l 1093 0 l 713 0 m 275 0 l 792 938 l 882 938 l 366 0 l 275 0 z "},"¼":{"ha":1311,"x_min":128,"x_max":1122,"o":"m 278 451 l 278 845 l 131 753 l 128 753 l 128 837 l 288 938 l 366 938 l 366 451 l 278 451 m 958 0 l 958 111 l 684 111 l 684 169 l 961 486 l 1039 486 l 1039 178 l 1122 178 l 1122 111 l 1039 111 l 1039 0 l 958 0 m 774 178 l 962 178 l 962 390 l 959 390 l 774 178 m 322 0 l 838 938 l 928 938 l 412 0 l 322 0 z "},"¾":{"ha":1204,"x_min":82,"x_max":1122,"o":"m 280 438 q 138 476 186 438 q 82 583 89 514 l 170 583 q 199 528 174 547 q 277 509 225 509 q 358 531 330 509 q 385 593 385 553 q 359 649 385 628 q 277 669 332 669 l 216 669 l 216 738 l 281 738 q 352 759 332 738 q 373 808 373 779 q 349 862 373 841 q 280 882 325 882 q 208 862 231 882 q 177 806 184 843 l 93 806 q 148 911 98 872 q 282 951 198 951 q 410 916 361 951 q 458 818 458 880 q 434 755 458 784 q 368 711 410 727 l 368 707 q 443 666 413 696 q 473 589 473 635 q 420 478 473 519 q 280 438 366 438 m 958 0 l 958 111 l 684 111 l 684 169 l 961 486 l 1039 486 l 1039 178 l 1122 178 l 1122 111 l 1039 111 l 1039 0 l 958 0 m 774 178 l 962 178 l 962 390 l 959 390 l 774 178 m 322 0 l 838 938 l 928 938 l 412 0 l 322 0 z "},"¹":{"ha":556,"x_min":128,"x_max":366,"o":"m 278 694 l 278 1088 l 131 997 l 128 997 l 128 1080 l 288 1181 l 366 1181 l 366 694 l 278 694 z "},"²":{"ha":556,"x_min":88,"x_max":468,"o":"m 88 694 l 88 753 l 307 939 q 362 995 347 972 q 376 1044 376 1017 q 351 1102 376 1080 q 278 1125 325 1125 q 205 1103 231 1125 q 172 1035 178 1081 l 88 1035 q 141 1149 93 1104 q 281 1194 190 1194 q 411 1153 363 1194 q 458 1046 458 1111 q 438 969 458 1002 q 373 899 417 936 l 216 769 l 216 766 l 468 766 l 468 694 l 88 694 z "},"³":{"ha":556,"x_min":82,"x_max":473,"o":"m 280 681 q 138 719 186 681 q 82 826 89 757 l 170 826 q 199 771 174 791 q 277 752 225 752 q 358 774 330 752 q 385 836 385 796 q 359 892 385 872 q 277 912 332 912 l 216 912 l 216 981 l 281 981 q 352 1002 332 981 q 373 1051 373 1022 q 349 1105 373 1084 q 280 1125 325 1125 q 208 1105 231 1125 q 177 1049 184 1086 l 93 1049 q 148 1155 98 1115 q 282 1194 198 1194 q 410 1159 361 1194 q 458 1061 458 1123 q 434 998 458 1027 q 368 954 410 970 l 368 950 q 443 909 413 939 q 473 832 473 878 q 420 721 473 762 q 280 681 366 681 z "}," ":{"ha":347,"x_min":0,"x_max":0,"o":""}," ":{"ha":347,"x_min":0,"x_max":0,"o":""},".":{"ha":301,"x_min":67,"x_max":234,"o":"m 150 -14 q 91 10 116 -14 q 67 69 67 35 q 91 128 67 104 q 150 153 116 153 q 209 128 185 153 q 234 69 234 104 q 209 10 234 35 q 150 -14 185 -14 z "},",":{"ha":301,"x_min":39,"x_max":220,"o":"m 39 -183 l 39 -113 l 81 -113 q 127 -98 111 -113 q 144 -51 144 -82 l 144 0 l 81 0 l 81 139 l 220 139 l 220 -51 q 186 -148 220 -113 q 88 -183 152 -183 l 39 -183 z "},":":{"ha":370,"x_min":102,"x_max":269,"o":"m 185 56 q 126 80 150 56 q 102 139 102 104 q 126 198 102 174 q 185 222 150 222 q 244 198 220 222 q 269 139 269 174 q 244 80 269 104 q 185 56 220 56 m 185 472 q 126 497 150 472 q 102 556 102 521 q 126 615 102 590 q 185 639 150 639 q 244 615 220 639 q 269 556 269 590 q 244 497 269 521 q 185 472 220 472 z "},";":{"ha":370,"x_min":74,"x_max":269,"o":"m 74 -113 l 74 -44 l 116 -44 q 162 -28 146 -44 q 178 19 178 -13 l 178 69 l 116 69 l 116 208 l 255 208 l 255 19 q 220 -79 255 -44 q 123 -113 186 -113 l 74 -113 m 185 472 q 126 497 150 472 q 102 556 102 521 q 126 615 102 590 q 185 639 150 639 q 244 615 220 639 q 269 556 269 590 q 244 497 269 521 q 185 472 220 472 z "},"…":{"ha":1389,"x_min":146,"x_max":1243,"o":"m 226 -14 q 170 10 193 -14 q 146 66 146 34 q 170 123 146 100 q 226 146 193 146 q 282 123 259 146 q 306 66 306 100 q 282 10 306 34 q 226 -14 259 -14 m 694 -14 q 638 10 662 -14 q 615 66 615 34 q 638 123 615 100 q 694 146 662 146 q 751 123 728 146 q 774 66 774 100 q 751 10 774 34 q 694 -14 728 -14 m 1163 -14 q 1107 10 1131 -14 q 1083 66 1083 34 q 1107 123 1083 100 q 1163 146 1131 146 q 1220 123 1197 146 q 1243 66 1243 100 q 1220 10 1243 34 q 1163 -14 1197 -14 z "},"!":{"ha":347,"x_min":94,"x_max":253,"o":"m 131 285 l 118 624 l 118 938 l 229 938 l 229 625 l 216 285 l 131 285 m 174 -14 q 117 10 141 -14 q 94 66 94 34 q 117 123 94 100 q 174 146 141 146 q 230 123 207 146 q 253 66 253 100 q 230 10 253 34 q 174 -14 207 -14 z "},"¡":{"ha":347,"x_min":94,"x_max":253,"o":"m 216 410 l 229 71 l 229 -243 l 118 -243 l 118 69 l 131 410 l 216 410 m 174 708 q 230 685 207 708 q 253 628 253 662 q 230 572 253 596 q 174 549 207 549 q 117 572 141 549 q 94 628 94 596 q 117 685 94 662 q 174 708 141 708 z "},"?":{"ha":671,"x_min":30,"x_max":627,"o":"m 243 285 q 254 378 243 340 q 289 447 265 417 q 354 509 314 478 l 417 558 q 494 634 468 598 q 521 713 521 669 q 470 820 521 781 q 332 859 419 859 q 202 825 250 859 q 139 729 154 792 l 30 729 q 127 892 46 832 q 337 951 207 951 q 491 923 426 951 q 591 842 556 895 q 627 715 627 789 q 594 600 627 652 q 495 498 560 549 l 412 433 q 354 371 370 400 q 334 285 337 341 l 243 285 m 284 -14 q 227 10 251 -14 q 204 66 204 34 q 227 123 204 100 q 284 146 251 146 q 340 123 317 146 q 363 66 363 100 q 340 10 363 34 q 284 -14 317 -14 z "},"¿":{"ha":671,"x_min":44,"x_max":641,"o":"m 428 410 q 417 316 428 354 q 382 248 406 278 q 317 185 358 218 l 255 137 q 177 61 204 97 q 150 -19 150 25 q 201 -126 150 -87 q 339 -164 252 -164 q 469 -131 421 -164 q 532 -35 517 -97 l 641 -35 q 545 -197 626 -137 q 334 -257 464 -257 q 181 -229 247 -257 q 80 -147 116 -200 q 44 -21 44 -94 q 78 95 44 44 q 176 197 111 147 l 259 262 q 318 323 301 294 q 337 410 334 353 l 428 410 m 388 708 q 444 685 421 708 q 468 628 468 662 q 444 572 468 596 q 388 549 421 549 q 332 572 355 549 q 308 628 308 596 q 332 685 308 662 q 388 708 355 708 z "},"·":{"ha":301,"x_min":67,"x_max":234,"o":"m 150 264 q 91 288 116 264 q 67 347 67 313 q 91 406 67 382 q 150 431 116 431 q 209 406 185 431 q 234 347 234 382 q 209 288 234 313 q 150 264 185 264 z "},"•":{"ha":487,"x_min":69,"x_max":417,"o":"m 243 295 q 156 318 196 295 q 93 381 116 341 q 69 469 69 421 q 93 557 69 517 q 156 619 116 596 q 243 642 196 642 q 331 619 292 642 q 394 557 370 596 q 417 469 417 517 q 394 381 417 421 q 331 318 370 341 q 243 295 292 295 z "},"*":{"ha":718,"x_min":57,"x_max":661,"o":"m 219 399 l 144 453 l 226 566 l 299 652 l 190 677 l 57 720 l 86 808 l 218 765 l 322 721 l 313 833 l 313 972 l 405 972 l 405 833 l 396 721 l 500 765 l 632 808 l 661 720 l 528 677 l 419 652 l 492 566 l 574 454 l 499 399 l 417 512 l 359 608 l 300 512 l 219 399 z "},"#":{"ha":764,"x_min":21,"x_max":743,"o":"m 104 0 l 157 274 l 21 274 l 21 358 l 174 358 l 218 580 l 80 580 l 80 663 l 234 663 l 287 938 l 377 938 l 324 663 l 516 663 l 569 938 l 660 938 l 606 663 l 743 663 l 743 580 l 590 580 l 546 358 l 684 358 l 684 274 l 530 274 l 477 0 l 387 0 l 440 274 l 248 274 l 194 0 l 104 0 m 258 353 l 459 353 l 506 584 l 304 584 l 258 353 z "},"/":{"ha":486,"x_min":21,"x_max":465,"o":"m 21 -14 l 366 951 l 465 951 l 120 -14 l 21 -14 z "},"\\":{"ha":486,"x_min":21,"x_max":465,"o":"m 465 -14 l 366 -14 l 21 951 l 120 951 l 465 -14 z "},"-":{"ha":417,"x_min":49,"x_max":368,"o":"m 49 301 l 49 394 l 368 394 l 368 301 l 49 301 z "},"–":{"ha":694,"x_min":56,"x_max":639,"o":"m 56 302 l 56 392 l 639 392 l 639 302 l 56 302 z "},"—":{"ha":1389,"x_min":56,"x_max":1333,"o":"m 56 300 l 56 395 l 1333 395 l 1333 300 l 56 300 z "},"_":{"ha":694,"x_min":-7,"x_max":701,"o":"m 701 -181 l -7 -181 l -7 -97 l 701 -97 l 701 -181 z "},"(":{"ha":382,"x_min":56,"x_max":340,"o":"m 229 -208 q 100 45 145 -101 q 56 360 56 191 q 100 677 56 529 q 229 938 145 824 l 340 938 q 205 669 252 818 q 157 361 157 520 q 205 58 157 204 q 340 -208 252 -88 l 229 -208 z "},")":{"ha":382,"x_min":42,"x_max":326,"o":"m 42 -208 q 178 58 131 -88 q 225 361 225 204 q 177 669 225 520 q 42 938 130 818 l 153 938 q 282 677 238 824 q 326 360 326 529 q 282 45 326 191 q 153 -208 238 -101 l 42 -208 z "},"{":{"ha":486,"x_min":35,"x_max":451,"o":"m 451 -208 q 304 -187 361 -208 q 219 -120 247 -166 q 192 -6 192 -75 l 192 196 q 156 292 192 264 q 35 321 120 321 l 35 409 q 157 438 122 410 q 192 534 192 466 l 192 735 q 220 849 192 804 q 305 916 248 894 q 451 938 362 938 l 451 851 q 330 823 365 851 q 296 726 296 795 l 296 528 q 264 417 296 455 q 160 367 231 378 l 160 362 q 264 315 231 352 q 296 203 296 278 l 296 1 q 330 -94 296 -67 q 451 -122 363 -122 l 451 -208 z "},"}":{"ha":486,"x_min":35,"x_max":451,"o":"m 35 -208 l 35 -122 q 156 -94 122 -122 q 190 3 190 -66 l 190 201 q 223 313 190 274 q 326 362 256 351 l 326 367 q 222 415 255 377 q 190 527 190 453 l 190 728 q 157 823 190 796 q 35 851 124 851 l 35 938 q 183 916 126 938 q 267 850 240 895 q 294 735 294 806 l 294 534 q 330 437 294 465 q 451 409 366 409 l 451 321 q 329 292 365 319 q 294 196 294 264 l 294 -6 q 266 -119 294 -74 q 181 -186 238 -164 q 35 -208 124 -208 z "},"[":{"ha":428,"x_min":104,"x_max":394,"o":"m 104 -208 l 104 938 l 394 938 l 394 854 l 204 854 l 204 -125 l 394 -125 l 394 -208 l 104 -208 z "},"]":{"ha":428,"x_min":35,"x_max":324,"o":"m 35 -207 l 35 -124 l 225 -124 l 225 854 l 35 854 l 35 938 l 324 938 l 324 -207 l 35 -207 z "},"‚":{"ha":301,"x_min":39,"x_max":220,"o":"m 39 -183 l 39 -113 l 81 -113 q 127 -98 111 -113 q 144 -51 144 -82 l 144 0 l 81 0 l 81 139 l 220 139 l 220 -51 q 186 -148 220 -113 q 88 -183 152 -183 l 39 -183 z "},"„":{"ha":602,"x_min":39,"x_max":521,"o":"m 39 -183 l 39 -113 l 81 -113 q 127 -98 111 -113 q 144 -51 144 -82 l 144 0 l 81 0 l 81 139 l 220 139 l 220 -51 q 186 -148 220 -113 q 88 -183 152 -183 l 39 -183 m 340 -183 l 340 -113 l 382 -113 q 428 -98 412 -113 q 444 -51 444 -82 l 444 0 l 382 0 l 382 139 l 521 139 l 521 -51 q 487 -148 521 -113 q 389 -183 453 -183 l 340 -183 z "},"“":{"ha":602,"x_min":81,"x_max":563,"o":"m 81 616 l 81 806 q 115 903 81 868 q 213 938 149 938 l 262 938 l 262 868 l 220 868 q 174 852 191 868 q 157 806 157 837 l 157 755 l 220 755 l 220 616 l 81 616 m 382 616 l 382 806 q 416 903 382 868 q 514 938 450 938 l 563 938 l 563 868 l 521 868 q 475 852 492 868 q 458 806 458 837 l 458 755 l 521 755 l 521 616 l 382 616 z "},"”":{"ha":602,"x_min":39,"x_max":521,"o":"m 39 616 l 39 685 l 81 685 q 127 701 111 685 q 144 748 144 716 l 144 799 l 81 799 l 81 938 l 220 938 l 220 748 q 186 650 220 685 q 88 616 152 616 l 39 616 m 340 616 l 340 685 l 382 685 q 428 701 412 685 q 444 748 444 716 l 444 799 l 382 799 l 382 938 l 521 938 l 521 748 q 487 650 521 685 q 389 616 453 616 l 340 616 z "},"‘":{"ha":301,"x_min":81,"x_max":262,"o":"m 81 616 l 81 806 q 115 903 81 868 q 213 938 149 938 l 262 938 l 262 868 l 220 868 q 174 852 191 868 q 157 806 157 837 l 157 755 l 220 755 l 220 616 l 81 616 z "},"’":{"ha":301,"x_min":39,"x_max":220,"o":"m 39 616 l 39 685 l 81 685 q 127 701 111 685 q 144 748 144 716 l 144 799 l 81 799 l 81 938 l 220 938 l 220 748 q 186 650 220 685 q 88 616 152 616 l 39 616 z "},"«":{"ha":683,"x_min":49,"x_max":634,"o":"m 243 71 l 49 347 l 243 624 l 345 624 l 150 347 l 345 71 l 243 71 m 532 71 l 338 347 l 532 624 l 634 624 l 440 347 l 634 71 l 532 71 z "},"»":{"ha":683,"x_min":49,"x_max":634,"o":"m 49 71 l 243 347 l 49 624 l 150 624 l 345 347 l 150 71 l 49 71 m 338 71 l 532 347 l 338 624 l 440 624 l 634 347 l 440 71 l 338 71 z "},"‹":{"ha":394,"x_min":49,"x_max":345,"o":"m 243 71 l 49 347 l 243 624 l 345 624 l 150 347 l 345 71 l 243 71 z "},"›":{"ha":394,"x_min":49,"x_max":345,"o":"m 49 71 l 243 347 l 49 624 l 150 624 l 345 347 l 150 71 l 49 71 z "},"\"":{"ha":556,"x_min":95,"x_max":461,"o":"m 95 590 l 95 938 l 183 938 l 183 590 l 95 590 m 373 590 l 373 938 l 461 938 l 461 590 l 373 590 z "},"'":{"ha":278,"x_min":95,"x_max":183,"o":"m 95 590 l 95 938 l 183 938 l 183 590 l 95 590 z "},"ƒ":{"ha":799,"x_min":128,"x_max":684,"o":"m 331 -208 l 331 416 l 128 416 l 128 499 l 332 499 l 332 833 q 360 911 332 885 q 436 938 388 938 l 684 938 l 684 854 l 439 854 l 439 499 l 670 499 l 670 416 l 440 416 l 440 -208 l 331 -208 z "},"@":{"ha":1319,"x_min":72,"x_max":1262,"o":"m 657 -139 q 344 -73 476 -139 q 142 112 213 -8 q 72 394 72 231 q 116 620 72 517 q 243 796 161 722 q 439 911 325 870 q 689 951 552 951 q 920 916 815 951 q 1101 817 1024 881 q 1220 664 1178 752 q 1262 471 1262 576 q 1221 288 1262 370 q 1112 156 1181 205 q 958 108 1043 108 q 862 134 895 108 q 822 214 830 161 l 817 214 q 744 135 792 162 q 633 108 697 108 q 498 144 556 108 q 408 246 440 181 q 376 399 376 311 q 408 553 376 487 q 498 655 440 618 q 633 691 556 691 q 744 664 697 691 q 817 584 792 637 l 822 584 l 822 677 l 914 677 l 914 177 q 1046 214 990 177 q 1135 316 1103 251 q 1167 464 1167 381 q 1106 670 1167 581 q 938 810 1045 759 q 690 861 831 861 q 414 803 531 861 q 231 639 296 744 q 167 394 167 535 q 225 158 167 257 q 392 5 282 59 q 657 -49 501 -49 l 1008 -49 l 1008 -139 l 657 -139 m 654 184 q 775 230 729 184 q 822 353 822 275 l 822 446 q 775 569 822 523 q 654 615 729 615 q 519 557 569 615 q 469 399 469 499 q 519 242 469 301 q 654 184 569 184 z "},"&":{"ha":926,"x_min":58,"x_max":910,"o":"m 361 0 q 201 32 270 0 q 95 124 133 65 q 58 263 58 183 q 93 389 58 339 q 179 466 128 440 q 279 497 230 492 l 279 501 q 193 536 234 510 q 128 602 153 561 q 103 698 103 644 q 178 873 103 809 q 382 938 253 938 l 620 938 l 620 843 l 394 843 q 260 803 307 843 q 214 688 214 763 q 265 573 214 613 q 394 532 316 532 l 655 532 l 655 694 l 763 694 l 763 532 l 910 532 l 910 440 l 763 440 l 763 0 l 361 0 m 385 95 l 655 95 l 655 440 l 384 440 q 229 397 289 440 q 169 269 169 354 q 226 139 169 184 q 385 95 282 95 z "},"¶":{"ha":764,"x_min":28,"x_max":632,"o":"m 331 -208 l 331 368 q 109 445 191 368 q 28 653 28 522 q 109 861 28 785 q 331 938 191 938 l 424 938 l 424 -208 l 331 -208 m 539 -208 l 539 938 l 632 938 l 632 -208 l 539 -208 z "},"§":{"ha":799,"x_min":51,"x_max":748,"o":"m 404 -222 q 225 -190 302 -222 q 102 -101 147 -159 q 51 35 57 -43 l 160 35 q 235 -87 169 -45 q 407 -128 301 -128 q 565 -91 509 -128 q 620 13 620 -54 q 579 103 620 69 q 458 152 537 137 l 294 184 q 119 262 175 207 q 64 385 64 316 q 98 483 64 440 q 200 551 132 527 l 200 556 q 116 626 142 584 q 90 721 90 668 q 128 841 90 789 q 233 922 166 894 q 388 951 300 951 q 612 885 523 951 q 714 707 700 819 l 604 707 q 531 820 589 782 q 384 858 473 858 q 244 822 296 858 q 191 728 191 787 q 229 649 191 682 q 352 601 267 617 l 519 568 q 692 490 635 546 q 748 359 748 434 q 718 266 748 306 q 622 196 689 226 l 622 191 q 721 21 721 144 q 635 -157 721 -91 q 404 -222 550 -222 m 559 223 q 623 273 600 243 q 647 338 647 302 q 484 480 647 453 l 263 523 q 191 477 216 508 q 166 404 166 446 q 204 322 166 355 q 325 272 242 289 l 559 223 z "},"©":{"ha":1250,"x_min":73,"x_max":1177,"o":"m 625 -153 q 411 -110 510 -153 q 235 9 311 -67 q 116 185 159 86 q 73 399 73 285 q 116 613 73 514 q 235 789 159 713 q 411 909 311 866 q 625 951 510 951 q 839 909 740 951 q 1015 789 939 866 q 1134 613 1091 713 q 1177 399 1177 514 q 1134 185 1177 285 q 1015 9 1091 86 q 839 -110 939 -67 q 625 -153 740 -153 m 625 -62 q 804 -27 721 -62 q 951 73 888 9 q 1051 220 1015 137 q 1087 399 1087 304 q 1051 579 1087 495 q 951 726 1015 662 q 804 825 888 789 q 625 861 721 861 q 446 825 530 861 q 299 726 362 789 q 199 579 235 662 q 163 399 163 495 q 199 220 163 304 q 299 73 235 137 q 446 -27 362 9 q 625 -62 530 -62 m 625 108 q 492 144 551 108 q 399 245 433 179 q 365 399 365 311 q 399 554 365 488 q 492 655 433 619 q 625 691 551 691 q 774 644 709 691 q 860 499 838 596 l 767 499 q 714 587 752 560 q 625 615 676 615 q 499 556 546 615 q 453 399 453 498 q 499 243 453 302 q 625 184 546 184 q 718 214 679 184 q 772 309 757 244 l 862 309 q 777 158 843 208 q 625 108 711 108 z "},"®":{"ha":1250,"x_min":73,"x_max":1177,"o":"m 625 -153 q 411 -110 510 -153 q 235 9 311 -67 q 116 185 159 86 q 73 399 73 285 q 116 613 73 514 q 235 789 159 713 q 411 909 311 866 q 625 951 510 951 q 839 909 740 951 q 1015 789 939 866 q 1134 613 1091 713 q 1177 399 1177 514 q 1134 185 1177 285 q 1015 9 1091 86 q 839 -110 939 -67 q 625 -153 740 -153 m 625 -62 q 804 -27 721 -62 q 951 73 888 9 q 1051 220 1015 137 q 1087 399 1087 304 q 1051 579 1087 495 q 951 726 1015 662 q 804 825 888 789 q 625 861 721 861 q 446 825 530 861 q 299 726 362 789 q 199 579 235 662 q 163 399 163 495 q 199 220 163 304 q 299 73 235 137 q 446 -27 362 9 q 625 -62 530 -62 m 412 122 l 412 677 l 670 677 q 802 634 751 677 q 852 513 852 591 q 834 438 852 470 q 781 388 816 406 l 781 383 q 833 364 815 383 q 852 309 852 345 l 852 122 l 764 122 l 764 322 l 500 322 l 500 122 l 412 122 m 500 398 l 659 398 q 734 424 705 398 q 764 498 764 450 q 734 572 764 545 q 659 598 705 598 l 500 598 l 500 398 z "},"™":{"ha":1157,"x_min":16,"x_max":1072,"o":"m 271 451 l 181 451 l 181 854 l 16 854 l 16 938 l 435 938 l 435 854 l 271 854 l 271 451 m 537 451 l 537 938 l 661 938 l 802 575 l 807 575 l 948 938 l 1072 938 l 1072 451 l 981 451 l 981 817 l 977 817 l 839 451 l 764 451 l 626 818 l 620 818 l 620 451 l 537 451 z "},"°":{"ha":556,"x_min":73,"x_max":483,"o":"m 278 542 q 175 569 221 542 q 101 644 128 597 q 73 747 73 690 q 101 850 73 803 q 175 924 128 896 q 278 951 221 951 q 381 924 334 951 q 455 850 427 896 q 483 747 483 803 q 455 644 483 690 q 381 569 427 597 q 278 542 334 542 m 278 623 q 365 659 329 623 q 402 747 402 696 q 365 834 402 797 q 278 870 329 870 q 190 834 227 870 q 154 747 154 797 q 190 659 154 696 q 278 623 227 623 z "},"|":{"ha":694,"x_min":302,"x_max":392,"o":"m 302 -208 l 302 972 l 392 972 l 392 -208 l 302 -208 z "},"¦":{"ha":694,"x_min":302,"x_max":392,"o":"m 302 521 l 302 972 l 392 972 l 392 521 l 302 521 m 302 -208 l 302 243 l 392 243 l 392 -208 l 302 -208 z "},"†":{"ha":718,"x_min":71,"x_max":647,"o":"m 322 0 l 313 321 l 313 646 l 209 638 l 71 638 l 71 730 l 209 730 l 322 721 l 313 833 l 313 972 l 405 972 l 405 833 l 396 721 l 508 730 l 647 730 l 647 638 l 508 638 l 405 646 l 405 321 l 396 0 l 322 0 z "},"‡":{"ha":718,"x_min":71,"x_max":647,"o":"m 313 0 l 313 139 l 322 251 l 209 242 l 71 242 l 71 334 l 209 334 l 319 325 l 319 647 l 209 638 l 71 638 l 71 730 l 209 730 l 322 721 l 313 833 l 313 972 l 405 972 l 405 833 l 396 721 l 508 730 l 647 730 l 647 638 l 508 638 l 398 647 l 398 325 l 508 334 l 647 334 l 647 242 l 508 242 l 396 251 l 405 139 l 405 0 l 313 0 z "},"¢":{"ha":799,"x_min":87,"x_max":756,"o":"m 389 -14 l 389 110 q 168 219 249 123 q 87 469 87 315 q 168 719 87 623 q 389 828 249 815 l 389 938 l 479 938 l 479 828 q 655 757 584 816 q 751 591 725 698 l 640 591 q 567 700 619 666 q 432 735 515 735 q 258 665 319 735 q 196 469 196 595 q 258 273 196 344 q 432 203 319 203 q 645 358 605 203 l 756 358 q 659 185 730 248 q 479 110 587 122 l 479 -14 l 389 -14 z "},"¤":{"ha":764,"x_min":102,"x_max":662,"o":"m 161 189 l 102 248 l 211 356 q 186 409 196 381 q 177 469 177 438 q 209 580 177 529 l 102 686 l 164 749 l 271 641 q 382 674 322 674 q 442 665 413 674 q 494 640 470 656 l 603 749 l 662 690 l 553 581 q 578 528 569 557 q 587 469 587 500 q 554 358 587 409 l 662 251 l 600 189 l 493 296 q 382 264 442 264 q 322 273 351 264 q 270 297 294 282 l 161 189 m 382 345 q 469 381 433 345 q 506 469 506 418 q 469 556 506 520 q 382 593 433 593 q 295 556 331 593 q 258 469 258 520 q 295 381 258 418 q 382 345 331 345 z "},"$":{"ha":799,"x_min":47,"x_max":748,"o":"m 377 -104 l 377 17 q 139 101 223 27 q 47 291 56 176 l 160 291 q 236 157 170 201 q 420 112 301 112 q 591 153 537 112 q 645 267 645 193 q 603 363 645 326 q 471 419 561 400 l 329 449 q 148 534 206 476 q 89 676 89 593 q 159 844 89 775 q 362 920 229 912 l 362 1007 l 456 1007 l 456 919 q 656 835 584 905 q 740 660 727 765 l 627 660 q 556 783 612 741 q 394 825 500 825 q 242 787 294 825 q 191 684 191 749 q 230 597 191 632 q 361 543 270 563 l 510 512 q 691 425 634 486 q 748 275 748 363 q 678 99 748 168 q 471 19 608 30 l 471 -104 l 377 -104 z "},"€":{"ha":799,"x_min":9,"x_max":775,"o":"m 456 -14 q 279 27 355 -14 q 158 146 203 68 q 108 334 113 225 l 9 334 l 9 413 l 106 413 l 106 524 l 9 524 l 9 603 l 108 603 q 158 791 113 713 q 279 910 203 868 q 456 951 355 951 q 602 924 537 951 q 711 839 667 896 q 773 694 755 782 l 662 694 q 591 818 644 780 q 457 855 539 855 q 284 791 348 855 q 208 603 219 727 l 537 603 l 537 524 l 207 524 l 207 413 l 537 413 l 537 334 l 208 334 q 284 147 219 212 q 457 82 348 82 q 593 120 538 82 q 668 250 648 159 l 775 250 q 714 102 758 161 q 604 14 669 43 q 456 -14 538 -14 z "},"£":{"ha":799,"x_min":9,"x_max":741,"o":"m 76 0 l 76 88 q 164 151 131 103 q 189 299 198 199 l 177 416 l 9 416 l 9 499 l 169 499 l 155 648 q 180 813 146 745 q 282 916 214 881 q 444 951 351 951 q 638 891 568 951 q 722 729 707 830 l 620 729 q 565 826 608 794 q 443 859 522 859 q 295 804 346 859 q 255 637 243 750 l 269 499 l 560 499 l 560 416 l 277 416 l 288 300 q 272 168 297 212 q 193 100 247 124 l 193 95 l 741 95 l 741 0 l 76 0 z "},"¥":{"ha":799,"x_min":23,"x_max":775,"o":"m 348 0 l 348 196 l 106 196 l 106 274 l 348 274 l 348 385 l 106 385 l 106 464 l 303 464 l 23 938 l 144 938 l 400 501 l 405 501 l 662 938 l 775 938 l 494 464 l 692 464 l 692 385 l 450 385 l 450 274 l 692 274 l 692 196 l 450 196 l 450 0 l 348 0 z "},"+":{"ha":799,"x_min":94,"x_max":705,"o":"m 355 156 l 355 427 l 94 427 l 94 510 l 355 510 l 355 781 l 443 781 l 443 510 l 705 510 l 705 427 l 443 427 l 443 156 l 355 156 z "},"−":{"ha":799,"x_min":108,"x_max":691,"o":"m 108 425 l 108 513 l 691 513 l 691 425 l 108 425 z "},"×":{"ha":799,"x_min":119,"x_max":679,"o":"m 178 189 l 119 248 l 339 468 l 119 686 l 182 749 l 400 529 l 620 749 l 679 690 l 459 470 l 679 251 l 617 189 l 398 409 l 178 189 z "},"÷":{"ha":799,"x_min":108,"x_max":691,"o":"m 108 425 l 108 513 l 691 513 l 691 425 l 108 425 m 399 163 q 343 187 367 163 q 319 243 319 211 q 343 300 319 277 q 399 323 367 323 q 456 300 433 323 q 479 243 479 277 q 456 187 479 211 q 399 163 433 163 m 399 615 q 343 638 367 615 q 319 694 319 662 q 343 751 319 728 q 399 774 367 774 q 456 751 433 774 q 479 694 479 728 q 456 638 479 662 q 399 615 433 615 z "},"=":{"ha":799,"x_min":108,"x_max":691,"o":"m 108 545 l 108 628 l 691 628 l 691 545 l 108 545 m 108 309 l 108 392 l 691 392 l 691 309 l 108 309 z "},">":{"ha":799,"x_min":108,"x_max":691,"o":"m 108 164 l 108 259 l 605 469 l 108 678 l 108 773 l 691 523 l 691 414 l 108 164 z "},"<":{"ha":799,"x_min":108,"x_max":691,"o":"m 691 164 l 108 414 l 108 523 l 691 773 l 691 678 l 193 469 l 691 259 l 691 164 z "},"±":{"ha":799,"x_min":94,"x_max":705,"o":"m 355 330 l 355 531 l 94 531 l 94 615 l 355 615 l 355 816 l 443 816 l 443 615 l 705 615 l 705 531 l 443 531 l 443 330 l 355 330 m 108 115 l 108 198 l 691 198 l 691 115 l 108 115 z "},"~":{"ha":799,"x_min":108,"x_max":691,"o":"m 112 385 l 108 385 l 108 484 q 175 537 138 520 q 256 554 213 554 q 358 534 311 554 q 448 492 404 513 q 542 471 493 471 q 620 491 583 471 q 686 552 656 512 l 691 552 l 691 454 q 624 400 661 418 q 543 383 587 383 q 441 404 487 383 q 350 446 395 425 q 257 466 306 466 q 179 446 215 466 q 112 385 142 426 z "},"¬":{"ha":799,"x_min":108,"x_max":668,"o":"m 580 223 l 580 425 l 108 425 l 108 513 l 668 513 l 668 223 l 580 223 z "},"^":{"ha":799,"x_min":95,"x_max":704,"o":"m 95 177 l 345 760 l 454 760 l 704 177 l 609 177 l 399 675 l 190 177 l 95 177 z "},"%":{"ha":1181,"x_min":63,"x_max":1118,"o":"m 278 438 q 120 503 177 438 q 63 694 63 569 q 120 885 63 819 q 278 951 177 951 q 435 886 376 951 q 493 694 493 821 q 435 503 493 568 q 278 438 376 438 m 278 509 q 370 555 339 509 q 402 694 402 601 q 370 834 402 788 q 278 880 339 880 q 154 694 154 880 q 278 509 154 509 m 903 -14 q 745 52 802 -14 q 688 243 688 118 q 745 434 688 368 q 903 500 802 500 q 1060 435 1001 500 q 1118 243 1118 369 q 1060 52 1118 117 q 903 -14 1001 -14 m 903 58 q 995 104 964 58 q 1027 243 1027 149 q 995 383 1027 337 q 903 428 964 428 q 779 243 779 428 q 903 58 779 58 m 287 0 l 803 938 l 894 938 l 377 0 l 287 0 z "},"‰":{"ha":1736,"x_min":63,"x_max":1674,"o":"m 278 438 q 120 503 177 438 q 63 694 63 569 q 120 885 63 819 q 278 951 177 951 q 435 886 376 951 q 493 694 493 821 q 435 503 493 568 q 278 438 376 438 m 278 509 q 370 555 339 509 q 402 694 402 601 q 370 834 402 788 q 278 880 339 880 q 154 694 154 880 q 278 509 154 509 m 903 -14 q 745 52 802 -14 q 688 243 688 118 q 745 434 688 368 q 903 500 802 500 q 1060 435 1001 500 q 1118 243 1118 369 q 1060 52 1118 117 q 903 -14 1001 -14 m 903 58 q 995 104 964 58 q 1027 243 1027 149 q 995 383 1027 337 q 903 428 964 428 q 779 243 779 428 q 903 58 779 58 m 1458 -14 q 1300 52 1358 -14 q 1243 243 1243 118 q 1300 434 1243 368 q 1458 500 1358 500 q 1615 435 1557 500 q 1674 243 1674 369 q 1615 52 1674 117 q 1458 -14 1557 -14 m 1458 58 q 1551 104 1520 58 q 1582 243 1582 149 q 1551 383 1582 337 q 1458 428 1520 428 q 1334 243 1334 428 q 1458 58 1334 58 m 287 0 l 803 938 l 894 938 l 377 0 l 287 0 z "},"̈":{"ha":0,"x_min":144,"x_max":551,"o":"m 483 800 q 435 820 455 800 q 414 868 414 840 q 435 916 414 896 q 483 936 455 936 q 531 916 510 936 q 551 868 551 896 q 531 820 551 840 q 483 800 510 800 m 212 800 q 164 820 184 800 q 144 868 144 840 q 164 916 144 896 q 212 936 184 936 q 260 916 240 936 q 280 868 280 896 q 260 820 280 840 q 212 800 240 800 z "},"̇":{"ha":0,"x_min":278,"x_max":417,"o":"m 347 799 q 298 819 318 799 q 278 868 278 839 q 298 917 278 897 q 347 938 318 938 q 396 917 376 938 q 417 868 417 897 q 396 819 417 839 q 347 799 376 799 z "},"̀":{"ha":0,"x_min":219,"x_max":476,"o":"m 399 787 l 219 990 l 219 994 l 348 994 l 476 792 l 476 787 l 399 787 z "},"́":{"ha":0,"x_min":219,"x_max":476,"o":"m 219 787 l 219 792 l 344 994 l 476 994 l 476 990 l 294 787 l 219 787 z "},"̋":{"ha":0,"x_min":118,"x_max":576,"o":"m 345 787 l 345 792 l 457 994 l 576 994 l 576 990 l 411 787 l 345 787 m 118 787 l 118 792 l 229 994 l 350 994 l 350 990 l 183 787 l 118 787 z "},"̂":{"ha":0,"x_min":134,"x_max":560,"o":"m 134 787 l 134 792 l 293 994 l 399 994 l 560 792 l 560 787 l 486 787 l 345 909 l 206 787 l 134 787 z "},"̌":{"ha":0,"x_min":134,"x_max":560,"o":"m 293 787 l 134 990 l 134 994 l 206 994 l 345 869 l 486 994 l 560 994 l 560 990 l 399 787 l 293 787 z "},"̆":{"ha":0,"x_min":150,"x_max":544,"o":"m 347 787 q 248 807 289 787 q 181 865 206 826 q 150 957 156 903 l 220 957 q 257 896 228 919 q 347 873 286 873 q 438 896 409 873 q 475 957 466 919 l 544 957 q 514 865 538 903 q 447 807 490 826 q 347 787 405 787 z "},"̊":{"ha":0,"x_min":206,"x_max":488,"o":"m 347 785 q 277 803 309 785 q 225 853 244 822 q 206 924 206 884 q 225 994 206 963 q 277 1044 244 1025 q 347 1063 309 1063 q 418 1044 387 1063 q 469 994 450 1025 q 488 924 488 963 q 469 853 488 884 q 418 803 450 822 q 347 785 387 785 m 347 850 q 399 870 377 850 q 421 924 421 891 q 399 977 421 956 q 347 998 377 998 q 295 977 317 998 q 273 924 273 956 q 295 870 273 891 q 347 850 317 850 z "},"̃":{"ha":0,"x_min":111,"x_max":583,"o":"m 111 785 q 154 907 118 863 q 250 951 190 951 q 323 931 289 951 q 389 889 358 910 q 448 868 420 868 q 521 951 505 868 l 583 951 q 539 830 575 875 q 443 785 503 785 q 372 806 406 785 q 307 847 338 826 q 247 868 275 868 q 198 848 215 868 q 174 785 182 828 l 111 785 z "},"̄":{"ha":0,"x_min":134,"x_max":560,"o":"m 134 830 l 134 906 l 560 906 l 560 830 l 134 830 z "},"̒":{"ha":0,"x_min":293,"x_max":444,"o":"m 293 813 l 293 958 q 323 1046 293 1015 q 411 1076 354 1076 l 444 1076 l 444 1007 l 418 1007 q 377 993 392 1007 q 362 951 362 979 l 362 926 l 406 926 l 406 813 l 293 813 z "},"̦":{"ha":0,"x_min":250,"x_max":402,"o":"m 250 -382 l 250 -312 l 277 -312 q 318 -299 303 -312 q 332 -257 332 -285 l 332 -231 l 288 -231 l 288 -118 l 402 -118 l 402 -264 q 371 -351 402 -321 q 284 -382 340 -382 l 250 -382 z "},"̧":{"ha":0,"x_min":222,"x_max":462,"o":"m 222 -310 l 222 -234 l 376 -234 l 376 -200 q 342 -135 376 -153 q 256 -111 308 -117 l 331 35 l 400 35 l 348 -71 q 429 -109 396 -80 q 462 -206 462 -138 q 435 -280 462 -249 q 358 -310 409 -310 l 222 -310 z "},"̨":{"ha":0,"x_min":236,"x_max":451,"o":"m 340 -278 q 262 -251 287 -278 q 236 -174 236 -223 q 276 -62 236 -115 q 362 19 316 -10 l 420 0 q 348 -80 372 -41 q 324 -174 324 -119 l 324 -201 l 451 -201 l 451 -278 l 340 -278 z "},"¨":{"ha":694,"x_min":144,"x_max":551,"o":"m 483 800 q 435 820 455 800 q 414 868 414 840 q 435 916 414 896 q 483 936 455 936 q 531 916 510 936 q 551 868 551 896 q 531 820 551 840 q 483 800 510 800 m 212 800 q 164 820 184 800 q 144 868 144 840 q 164 916 144 896 q 212 936 184 936 q 260 916 240 936 q 280 868 280 896 q 260 820 280 840 q 212 800 240 800 z "},"˙":{"ha":694,"x_min":278,"x_max":417,"o":"m 347 799 q 298 819 318 799 q 278 868 278 839 q 298 917 278 897 q 347 938 318 938 q 396 917 376 938 q 417 868 417 897 q 396 819 417 839 q 347 799 376 799 z "},"`":{"ha":694,"x_min":219,"x_max":476,"o":"m 399 787 l 219 990 l 219 994 l 348 994 l 476 792 l 476 787 l 399 787 z "},"´":{"ha":694,"x_min":219,"x_max":476,"o":"m 219 787 l 219 792 l 344 994 l 476 994 l 476 990 l 294 787 l 219 787 z "},"˝":{"ha":694,"x_min":118,"x_max":576,"o":"m 345 787 l 345 792 l 457 994 l 576 994 l 576 990 l 411 787 l 345 787 m 118 787 l 118 792 l 229 994 l 350 994 l 350 990 l 183 787 l 118 787 z "},"ˆ":{"ha":694,"x_min":134,"x_max":560,"o":"m 134 787 l 134 792 l 293 994 l 399 994 l 560 792 l 560 787 l 486 787 l 345 909 l 206 787 l 134 787 z "},"ˇ":{"ha":694,"x_min":134,"x_max":560,"o":"m 293 787 l 134 990 l 134 994 l 206 994 l 345 869 l 486 994 l 560 994 l 560 990 l 399 787 l 293 787 z "},"˘":{"ha":694,"x_min":150,"x_max":544,"o":"m 347 787 q 248 807 289 787 q 181 865 206 826 q 150 957 156 903 l 220 957 q 257 896 228 919 q 347 873 286 873 q 438 896 409 873 q 475 957 466 919 l 544 957 q 514 865 538 903 q 447 807 490 826 q 347 787 405 787 z "},"˚":{"ha":694,"x_min":206,"x_max":488,"o":"m 347 785 q 277 803 309 785 q 225 853 244 822 q 206 924 206 884 q 225 994 206 963 q 277 1044 244 1025 q 347 1063 309 1063 q 418 1044 387 1063 q 469 994 450 1025 q 488 924 488 963 q 469 853 488 884 q 418 803 450 822 q 347 785 387 785 m 347 850 q 399 870 377 850 q 421 924 421 891 q 399 977 421 956 q 347 998 377 998 q 295 977 317 998 q 273 924 273 956 q 295 870 273 891 q 347 850 317 850 z "},"˜":{"ha":694,"x_min":111,"x_max":583,"o":"m 111 785 q 154 907 118 863 q 250 951 190 951 q 323 931 289 951 q 389 889 358 910 q 448 868 420 868 q 521 951 505 868 l 583 951 q 539 830 575 875 q 443 785 503 785 q 372 806 406 785 q 307 847 338 826 q 247 868 275 868 q 198 848 215 868 q 174 785 182 828 l 111 785 z "},"¯":{"ha":694,"x_min":134,"x_max":560,"o":"m 134 830 l 134 906 l 560 906 l 560 830 l 134 830 z "},"¸":{"ha":694,"x_min":222,"x_max":462,"o":"m 222 -310 l 222 -234 l 376 -234 l 376 -200 q 342 -135 376 -153 q 256 -111 308 -117 l 331 35 l 400 35 l 348 -71 q 429 -109 396 -80 q 462 -206 462 -138 q 435 -280 462 -249 q 358 -310 409 -310 l 222 -310 z "},"˛":{"ha":694,"x_min":236,"x_max":451,"o":"m 340 -278 q 262 -251 287 -278 q 236 -174 236 -223 q 276 -62 236 -115 q 362 19 316 -10 l 420 0 q 348 -80 372 -41 q 324 -174 324 -119 l 324 -201 l 451 -201 l 451 -278 l 340 -278 z "}}}
